<svg width="208" height="38" viewBox="0 0 208 38" fill="none" xmlns="http://www.w3.org/2000/svg">
<g clip-path="url(#clip0_80_170)">
<path d="M116.587 28.0476H121.017V11.3384H116.587V28.0476ZM116.587 8.73277H121.017V4.75905H116.587V8.73277Z" fill="black"/>
<path d="M123.872 33.5196H128.302V26.1584H128.366C129.311 27.5916 130.842 28.5362 133.187 28.5362C137.486 28.5362 140.418 25.1162 140.418 19.7094C140.418 14.4979 137.584 10.8824 133.154 10.8824C130.874 10.8824 129.311 11.9574 128.236 13.423H128.138V11.3384H123.872V33.5196ZM132.242 24.8556C129.604 24.8556 128.204 22.8688 128.204 19.8396C128.204 16.843 129.311 14.4654 132.08 14.4654C134.816 14.4654 135.923 16.6802 135.923 19.8396C135.923 22.999 134.49 24.8556 132.242 24.8556Z" fill="black"/>
<path d="M149.254 28.5362C153.424 28.5362 156.29 26.5168 156.29 23.1619C156.29 19.2534 153.196 18.4716 150.394 17.8854C148.016 17.3968 145.802 17.2664 145.802 15.8334C145.802 14.6282 146.942 13.9768 148.668 13.9768C150.557 13.9768 151.698 14.6282 151.892 16.4196H155.898C155.573 13.0648 153.13 10.8824 148.733 10.8824C144.922 10.8824 141.926 12.6088 141.926 16.2242C141.926 19.8722 144.857 20.6864 147.854 21.2728C150.134 21.7288 152.25 21.8916 152.25 23.4876C152.25 24.6602 151.144 25.4094 149.19 25.4094C147.202 25.4094 145.834 24.5624 145.541 22.6408H141.438C141.698 26.191 144.401 28.5362 149.254 28.5362Z" fill="black"/>
<path d="M173.108 28.0476V11.3384H168.678V20.9796C168.678 23.1944 167.408 24.7579 165.323 24.7579C163.434 24.7579 162.555 23.683 162.555 21.7288V11.3384H158.157V22.4779C158.157 26.1259 160.242 28.5036 163.955 28.5036C166.301 28.5036 167.603 27.6242 168.743 26.0934H168.841V28.0476H173.108Z" fill="black"/>
<path d="M175.973 28.0476H180.403V18.3414C180.403 16.1264 181.608 14.6934 183.4 14.6934C185.028 14.6934 185.973 15.6704 185.973 17.5596V28.0476H190.402V18.3414C190.402 16.1264 191.542 14.6934 193.399 14.6934C195.028 14.6934 195.972 15.6704 195.972 17.5596V28.0476H200.402V16.8104C200.402 13.1624 198.415 10.8824 194.897 10.8824C192.78 10.8824 191.021 11.9899 189.881 13.8139H189.816C189.002 12.055 187.308 10.8824 185.191 10.8824C182.878 10.8824 181.25 12.055 180.338 13.5859H180.24V11.3384H175.973V28.0476Z" fill="black"/>
<path d="M1.13306 28.0476H5.56277V4.75905H1.13306V28.0476Z" fill="black"/>
<path d="M16.394 28.5362C21.5728 28.5362 25.1231 24.6928 25.1231 19.7094C25.1231 14.7259 21.5728 10.8824 16.394 10.8824C11.2151 10.8824 7.66479 14.7259 7.66479 19.7094C7.66479 24.6928 11.2151 28.5362 16.394 28.5362ZM16.394 25.1488C13.658 25.1488 12.1596 22.9664 12.1596 19.7094C12.1596 16.4522 13.658 14.2374 16.394 14.2374C19.0974 14.2374 20.6282 16.4522 20.6282 19.7094C20.6282 22.9664 19.0974 25.1488 16.394 25.1488Z" fill="black"/>
<path d="M34.5433 33.7476C37.0188 33.7476 39.1685 33.1614 40.569 31.8584C41.8068 30.7184 42.5559 29.1224 42.5559 26.7774V11.3384H38.2891V13.0974H38.2239C37.2142 11.6968 35.6833 10.8824 33.5987 10.8824C29.3645 10.8824 26.3679 14.0744 26.3679 19.0579C26.3679 24.1064 30.0159 27.0379 33.7291 27.0379C35.8462 27.0379 37.1165 26.191 38.0936 25.0836H38.1913V26.9076C38.1913 29.1876 36.9862 30.3928 34.4782 30.3928C32.4262 30.3928 31.4816 29.5784 31.1233 28.5362H26.7262C27.1822 31.7934 29.9833 33.7476 34.5433 33.7476ZM34.4782 23.4876C32.1982 23.4876 30.6999 21.8264 30.6999 18.9928C30.6999 16.1916 32.1982 14.4328 34.4456 14.4328C37.1165 14.4328 38.4193 16.5174 38.4193 18.9602C38.4193 21.4356 37.2793 23.4876 34.4782 23.4876Z" fill="black"/>
<path d="M53.3232 28.5362C58.502 28.5362 62.0523 24.6928 62.0523 19.7094C62.0523 14.7259 58.502 10.8824 53.3232 10.8824C48.1443 10.8824 44.594 14.7259 44.594 19.7094C44.594 24.6928 48.1443 28.5362 53.3232 28.5362ZM53.3232 25.1488C50.5872 25.1488 49.0889 22.9664 49.0889 19.7094C49.0889 16.4522 50.5872 14.2374 53.3232 14.2374C56.0266 14.2374 57.5575 16.4522 57.5575 19.7094C57.5575 22.9664 56.0266 25.1488 53.3232 25.1488Z" fill="black"/>
<path d="M202.011 8.59524C202.011 7.84571 202.619 7.2381 203.369 7.2381H206.083C206.832 7.2381 207.44 7.84571 207.44 8.59524C207.44 9.34477 206.832 9.95239 206.083 9.95239H203.369C202.619 9.95239 202.011 9.34477 202.011 8.59524Z" fill="black"/>
<path fill-rule="evenodd" clip-rule="evenodd" d="M88.9165 0C99.4095 0 107.917 8.50659 107.917 19C107.917 29.4934 99.4095 38 88.9165 38C78.4231 38 69.9165 29.4934 69.9165 19C69.9165 8.50659 78.4231 0 88.9165 0ZM88.2297 1.42176C86.0621 1.72681 83.9982 3.46853 82.396 6.38153C81.9312 7.22649 81.5119 8.15999 81.1465 9.16792C83.3251 8.62046 85.7182 8.2977 88.2297 8.24778V1.42176ZM79.5407 9.62426C79.9951 8.1981 80.551 6.88598 81.1925 5.71962C81.9867 4.27556 82.9293 3.02855 83.9913 2.07078C78.2164 3.74797 73.6644 8.29995 71.9872 14.0749C72.945 13.0129 74.192 12.0703 75.6361 11.2761C76.8025 10.6346 78.1145 10.0786 79.5407 9.62426ZM79.0844 11.23C78.5369 13.4086 78.2142 15.8017 78.1642 18.3132H71.3382C71.6432 16.1456 73.385 14.0817 76.298 12.4796C77.143 12.0148 78.0764 11.5955 79.0844 11.23ZM79.538 18.3132C79.5947 15.5724 79.9894 12.9992 80.6422 10.7257C82.9157 10.0729 85.4889 9.67822 88.2297 9.6215V12.5883C87.2073 15.2059 85.1218 17.2911 82.5041 18.3132H79.538ZM78.1642 19.6868H71.3382C71.6432 21.8544 73.385 23.9182 76.298 25.5204C77.143 25.9852 78.0764 26.4045 79.0844 26.77C78.5369 24.5914 78.2142 22.1983 78.1642 19.6868ZM80.6422 27.2743C79.9894 25.0008 79.5947 22.4276 79.538 19.6868H82.5041C85.1218 20.7089 87.2073 22.7941 88.2297 25.4117V28.3785C85.4889 28.3218 82.9157 27.9272 80.6422 27.2743ZM79.5407 28.3757C78.1145 27.9214 76.8025 27.3654 75.6361 26.7239C74.192 25.9297 72.945 24.9871 71.9872 23.9251C73.6644 29.7 78.2164 34.2521 83.9913 35.9292C82.9293 34.9714 81.9867 33.7244 81.1925 32.2803C80.551 31.114 79.9951 29.8019 79.5407 28.3757ZM88.2297 36.5782C86.0621 36.2732 83.9982 34.5315 82.396 31.6185C81.9312 30.7735 81.5119 29.84 81.1465 28.8321C83.3251 29.3795 85.7182 29.7023 88.2297 29.7522V36.5782ZM93.8416 35.9292C94.9036 34.9714 95.8461 33.7244 96.6403 32.2803C97.2815 31.114 97.8382 29.8019 98.2923 28.3757C99.7183 27.9214 101.03 27.3654 102.197 26.7239C103.641 25.9297 104.888 24.9871 105.846 23.9251C104.168 29.7 99.6166 34.2521 93.8416 35.9292ZM96.6868 28.8321C96.3211 29.84 95.9012 30.7735 95.4366 31.6185C93.8348 34.5315 91.7708 36.2732 89.6032 36.5782V29.7522C92.1147 29.7023 94.5078 29.3795 96.6868 28.8321ZM98.7483 26.77C99.7563 26.4045 100.69 25.9852 101.535 25.5204C104.448 23.9183 106.19 21.8544 106.495 19.6868H99.6689C99.6185 22.1983 99.2955 24.5914 98.7483 26.77ZM98.2952 19.6868C98.2382 22.4276 97.8439 25.0008 97.1903 27.2743C94.9172 27.9272 92.344 28.3218 89.6032 28.3785V25.4139C90.6254 22.7953 92.7113 20.7091 95.3297 19.6868H98.2952ZM99.6689 18.3132H106.495C106.19 16.1456 104.448 14.0817 101.535 12.4796C100.69 12.0148 99.7563 11.5955 98.7483 11.23C99.2955 13.4086 99.6185 15.8017 99.6689 18.3132ZM97.1903 10.7257C97.8439 12.9992 98.2382 15.5724 98.2952 18.3132H95.3298C92.7113 17.2909 90.6254 15.2047 89.6032 12.5861V9.6215C92.344 9.67822 94.9172 10.0729 97.1903 10.7257ZM98.2923 9.62426C99.7183 10.0786 101.03 10.6346 102.197 11.2761C103.641 12.0703 104.888 13.0129 105.846 14.0749C104.168 8.29995 99.6166 3.74797 93.8416 2.07078C94.9036 3.02855 95.8461 4.27556 96.6403 5.71962C97.2815 6.88598 97.8382 8.1981 98.2923 9.62426ZM89.6032 1.42176C91.7708 1.72681 93.8348 3.46853 95.4366 6.38153C95.9012 7.2265 96.3211 8.15999 96.6868 9.16792C94.5078 8.62046 92.1147 8.2977 89.6032 8.24778V1.42176Z" fill="black"/>
</g>
<defs>
<clipPath id="clip0_80_170">
<rect width="207.1" height="38" fill="white" transform="translate(0.350098)"/>
</clipPath>
</defs>
</svg>
