<svg width="164" height="48" viewBox="0 0 164 48" fill="none" xmlns="http://www.w3.org/2000/svg">
<path d="M54.5077 16.5512C54.5077 15.6993 54.3903 15.073 54.1557 14.6721C53.921 14.2545 53.4516 14.0458 52.7476 14.0458H52.2448V13.5447H54.5077C55.1279 13.5447 55.5889 13.6283 55.8906 13.7953C56.2091 13.9456 56.4355 14.2296 56.5695 14.6471C56.7036 15.0647 56.7707 15.6993 56.7707 16.5512V29.078H65.6969V30.0801H54.5077V16.5512Z" fill="#4845D2"/>
<path d="M71.4283 30.3306C70.2885 30.3306 69.2994 30.0634 68.4613 29.5289C67.6232 28.9777 66.9862 28.2345 66.5504 27.2992C66.1146 26.3639 65.8966 25.3282 65.8966 24.1925C65.8966 23.0568 66.1146 22.0212 66.5504 21.0858C66.9862 20.1505 67.6232 19.4156 68.4613 18.8811C69.2994 18.3299 70.2885 18.0544 71.4283 18.0544C72.5682 18.0544 73.5572 18.3299 74.3953 18.8811C75.2335 19.4156 75.8705 20.1505 76.3063 21.0858C76.7421 22.0212 76.9601 23.0568 76.9601 24.1925C76.9601 25.3282 76.7421 26.3639 76.3063 27.2992C75.8705 28.2345 75.2335 28.9777 74.3953 29.5289C73.5572 30.0634 72.5682 30.3306 71.4283 30.3306ZM71.4283 29.3285C72.0486 29.3285 72.5933 29.103 73.0627 28.6521C73.5488 28.2011 73.9176 27.5831 74.1691 26.7981C74.4373 26.0131 74.5714 25.1446 74.5714 24.1925C74.5714 23.2404 74.4373 22.3719 74.1691 21.587C73.9176 20.8019 73.5488 20.1839 73.0627 19.733C72.5933 19.282 72.0486 19.0565 71.4283 19.0565C70.8081 19.0565 70.2549 19.282 69.7688 19.733C69.2994 20.1839 68.9307 20.8019 68.6625 21.587C68.4111 22.3719 68.2853 23.2404 68.2853 24.1925C68.2853 25.1446 68.4111 26.0131 68.6625 26.7981C68.9307 27.5831 69.2994 28.2011 69.7688 28.6521C70.2549 29.103 70.8081 29.3285 71.4283 29.3285Z" fill="#4845D2"/>
<path d="M83.5296 35.0908C81.8365 35.0908 80.4871 34.7819 79.4814 34.1639C78.4923 33.5458 77.9978 32.5605 77.9978 31.2075C77.9978 30.4392 78.2576 29.7711 78.7773 29.2032C79.2969 28.6353 79.9591 28.2178 80.7637 27.9506C80.0932 27.5831 79.7579 27.082 79.7579 26.4473C79.7579 26.1133 79.8334 25.8544 79.9842 25.6707C80.1351 25.4869 80.353 25.2865 80.638 25.0694C80.1016 24.8022 79.649 24.3846 79.2802 23.8167C78.9281 23.2488 78.7522 22.5808 78.7522 21.8124C78.7522 19.3071 80.3446 18.0544 83.5296 18.0544H88.1812V18.6807L86.5468 18.9312V19.0565C87.0665 19.3237 87.4856 19.6996 87.8041 20.1839C88.1393 20.6516 88.3069 21.1944 88.3069 21.8124C88.3069 24.3178 86.7145 25.5705 83.5296 25.5705C81.7695 25.5705 80.8894 25.8628 80.8894 26.4473C80.8894 27.0319 81.7695 27.3242 83.5296 27.3242C85.1556 27.3242 86.4798 27.6499 87.5023 28.3013C88.5416 28.936 89.0613 29.9047 89.0613 31.2075C89.0613 32.5605 88.5584 33.5458 87.5527 34.1639C86.5636 34.7819 85.2226 35.0908 83.5296 35.0908ZM83.5296 24.6936C84.2839 24.6936 84.8873 24.468 85.3399 24.0171C85.8093 23.5495 86.044 22.8146 86.044 21.8124C86.044 20.8604 85.8093 20.1422 85.3399 19.6578C84.8873 19.1735 84.2839 18.9312 83.5296 18.9312C82.7752 18.9312 82.1634 19.1651 81.6941 19.6328C81.2414 20.0837 81.0151 20.8103 81.0151 21.8124C81.0151 22.8146 81.2414 23.5495 81.6941 24.0171C82.1634 24.468 82.7752 24.6936 83.5296 24.6936ZM83.5296 34.0887C84.5353 34.0887 85.3316 33.8465 85.9182 33.3622C86.5049 32.8945 86.7983 32.1763 86.7983 31.2075C86.7983 29.5372 85.7926 28.5768 83.781 28.3264L82.3981 28.2011C81.7108 28.4683 81.1828 28.8441 80.814 29.3285C80.4452 29.8129 80.2608 30.4392 80.2608 31.2075C80.2608 32.1763 80.5541 32.8945 81.1409 33.3622C81.7276 33.8465 82.5238 34.0887 83.5296 34.0887Z" fill="#4845D2"/>
<path d="M95.6286 30.3306C94.4888 30.3306 93.4997 30.0634 92.6616 29.5289C91.8235 28.9777 91.1865 28.2345 90.7506 27.2992C90.3148 26.3639 90.0969 25.3282 90.0969 24.1925C90.0969 23.0568 90.3148 22.0212 90.7506 21.0858C91.1865 20.1505 91.8235 19.4156 92.6616 18.8811C93.4997 18.3299 94.4888 18.0544 95.6286 18.0544C96.7685 18.0544 97.7575 18.3299 98.5956 18.8811C99.434 19.4156 100.071 20.1505 100.507 21.0858C100.942 22.0212 101.16 23.0568 101.16 24.1925C101.16 25.3282 100.942 26.3639 100.507 27.2992C100.071 28.2345 99.434 28.9777 98.5956 29.5289C97.7575 30.0634 96.7685 30.3306 95.6286 30.3306ZM95.6286 29.3285C96.2489 29.3285 96.7936 29.103 97.263 28.6521C97.7491 28.2011 98.1179 27.5831 98.3693 26.7981C98.6376 26.0131 98.7717 25.1446 98.7717 24.1925C98.7717 23.2404 98.6376 22.3719 98.3693 21.587C98.1179 20.8019 97.7491 20.1839 97.263 19.733C96.7936 19.282 96.2489 19.0565 95.6286 19.0565C95.0084 19.0565 94.4552 19.282 93.9691 19.733C93.4997 20.1839 93.131 20.8019 92.8628 21.587C92.6113 22.3719 92.4856 23.2404 92.4856 24.1925C92.4856 25.1446 92.6113 26.0131 92.8628 26.7981C93.131 27.5831 93.4997 28.2011 93.9691 28.6521C94.4552 29.103 95.0084 29.3285 95.6286 29.3285Z" fill="#4845D2"/>
<path d="M104.688 16.8017C104.302 16.8017 103.966 16.643 103.681 16.3257C103.414 16.0083 103.279 15.6325 103.279 15.1983C103.279 14.8475 103.38 14.5719 103.581 14.3715C103.799 14.1711 104.084 14.0709 104.436 14.0709C104.822 14.0709 105.148 14.2296 105.416 14.5468C105.702 14.8642 105.844 15.24 105.844 15.6743C105.844 16.025 105.735 16.3006 105.517 16.501C105.316 16.7015 105.04 16.8017 104.688 16.8017ZM103.732 21.3113C103.732 20.4596 103.614 19.8332 103.38 19.4324C103.145 19.0148 102.675 18.806 101.971 18.806H101.469V18.305H103.732C104.352 18.305 104.813 18.3884 105.115 18.5554C105.433 18.7058 105.659 18.9897 105.794 19.4073C105.928 19.8248 105.994 20.4596 105.994 21.3113V30.0801H103.732V21.3113Z" fill="#4845D2"/>
<path d="M109.165 21.3113C109.165 20.4596 109.048 19.8332 108.813 19.4324C108.579 19.0148 108.109 18.806 107.405 18.806H106.903V18.3049H109.165C109.802 18.3049 110.28 18.3967 110.598 18.5805C110.934 18.7475 111.169 19.0315 111.302 19.4324H111.428C111.73 19.0482 112.158 18.7224 112.711 18.4552C113.264 18.188 113.968 18.0544 114.823 18.0544C116.264 18.0544 117.379 18.639 118.167 19.8081C118.955 20.9606 119.348 22.4221 119.348 24.1925C119.348 25.9797 118.938 27.4494 118.116 28.6019C117.312 29.7544 116.131 30.3306 114.571 30.3306C113.934 30.3306 113.373 30.2638 112.887 30.1302C112.401 29.9966 111.915 29.8129 111.428 29.5791V34.8403H109.165V21.3113ZM113.817 29.3285C114.89 29.3285 115.677 28.8608 116.181 27.9255C116.7 26.9902 116.96 25.7458 116.96 24.1925C116.96 22.6559 116.717 21.42 116.231 20.4845C115.745 19.5326 115.024 19.0565 114.069 19.0565C112.945 19.0565 112.065 19.5576 111.428 20.5598V28.5768C111.932 28.8107 112.367 28.9944 112.736 29.1281C113.104 29.2617 113.465 29.3285 113.817 29.3285Z" fill="#4845D2"/>
<path d="M125.512 30.3306C123.584 30.3306 122.284 29.9966 121.613 29.3285C121.329 29.0446 121.153 28.7272 121.086 28.3764C121.019 28.009 120.985 27.4494 120.985 26.6979H121.489C121.639 27.533 122 28.1844 122.569 28.6521C123.156 29.103 123.969 29.3285 125.008 29.3285C125.93 29.3285 126.618 29.1698 127.07 28.8525C127.54 28.5351 127.774 28.1092 127.774 27.5747C127.774 27.0904 127.59 26.6728 127.221 26.322C126.869 25.9713 126.299 25.6373 125.512 25.3199L124.002 24.6936C122.997 24.2927 122.243 23.825 121.739 23.2906C121.237 22.7561 120.985 22.0964 120.985 21.3113C120.985 20.2925 121.371 19.4992 122.142 18.9312C122.913 18.3467 123.91 18.0544 125.134 18.0544C126.978 18.0544 128.235 18.3884 128.905 19.0565C129.19 19.3405 129.366 19.6578 129.433 20.0086C129.501 20.3593 129.535 20.9188 129.535 21.6872H129.031C128.897 20.852 128.546 20.209 127.975 19.758C127.405 19.2903 126.626 19.0565 125.637 19.0565C124.849 19.0565 124.229 19.2235 123.776 19.5576C123.341 19.8749 123.123 20.2925 123.123 20.8103C123.123 21.6788 123.793 22.3887 125.134 22.9398L126.643 23.5661C127.783 24.0338 128.612 24.535 129.132 25.0694C129.652 25.5871 129.911 26.2552 129.911 27.0737C129.911 28.0925 129.501 28.8942 128.679 29.4789C127.858 30.0467 126.802 30.3306 125.512 30.3306Z" fill="#4845D2"/>
<path d="M136.331 30.3306C135.074 30.3306 134.042 29.9966 133.238 29.3285C132.45 28.6604 132.056 27.4913 132.056 25.821V21.3113C132.056 20.4596 131.938 19.8332 131.704 19.4324C131.469 19.0148 131 18.806 130.296 18.806H130.045V18.3049H132.056C132.677 18.3049 133.137 18.3884 133.439 18.5554C133.757 18.7058 133.983 18.9897 134.118 19.4073C134.252 19.8248 134.318 20.4596 134.318 21.3113V25.821C134.318 26.9902 134.579 27.8503 135.098 28.4015C135.635 28.936 136.297 29.2032 137.085 29.2032C137.973 29.2032 138.811 28.7606 139.599 27.8754V18.3049H141.862V30.0801H140.605L139.725 29.078H139.599C139.247 29.4287 138.786 29.7293 138.217 29.9799C137.663 30.2137 137.035 30.3306 136.331 30.3306Z" fill="#4845D2"/>
<path d="M145.109 21.3113C145.109 20.4596 144.992 19.8332 144.757 19.4324C144.523 19.0148 144.053 18.806 143.35 18.806H142.847V18.3049H145.109C145.73 18.3049 146.2 18.3884 146.518 18.5554C146.853 18.7224 147.096 18.973 147.247 19.3071H147.373C147.724 18.9563 148.178 18.664 148.73 18.4301C149.3 18.1797 149.938 18.0544 150.641 18.0544C151.345 18.0544 151.949 18.188 152.451 18.4552C152.955 18.7058 153.357 19.1567 153.659 19.8081C154.094 19.2569 154.648 18.831 155.318 18.5304C156.005 18.2131 156.709 18.0544 157.43 18.0544C158.504 18.0544 159.358 18.3884 159.995 19.0565C160.632 19.7246 160.951 20.8938 160.951 22.564V30.0801H158.687V22.564C158.687 21.3615 158.52 20.5013 158.185 19.9835C157.85 19.449 157.346 19.1818 156.676 19.1818C156.207 19.1818 155.712 19.3571 155.192 19.7079C154.673 20.042 154.287 20.4094 154.036 20.8103C154.12 21.0608 154.162 21.6454 154.162 22.564V30.0801H151.899V22.564C151.899 21.3615 151.731 20.5013 151.396 19.9835C151.06 19.449 150.558 19.1818 149.887 19.1818C148.999 19.1818 148.161 19.6244 147.373 20.5096V30.0801H145.109V21.3113Z" fill="#4845D2"/>
<path fill-rule="evenodd" clip-rule="evenodd" d="M27.6819 3.45098C29.4188 4.26625 30.7664 5.85263 31.1964 7.86824L32.6093 14.4916C33.0926 16.7567 33.1342 19.069 32.7565 21.3095C32.8507 21.3242 32.9454 21.3364 33.0406 21.3463C33.4876 19.4151 33.6168 17.4061 33.405 15.3977L32.6946 8.66348C32.4309 6.16257 30.6987 4.16961 28.4415 3.44567C28.3303 3.43973 28.2183 3.43672 28.1057 3.43672C27.9632 3.43672 27.8219 3.44152 27.6819 3.45098ZM27.3112 3.48716C29.1387 4.2326 30.5763 5.83636 31.0178 7.90606L32.4308 14.5294C32.9091 16.7717 32.9505 19.0606 32.5766 21.2783C32.4984 21.2635 32.4206 21.2471 32.3433 21.229C32.604 18.7187 32.3419 16.1576 31.5441 13.7111L29.4441 7.2712C28.9208 5.66623 27.8155 4.41166 26.4367 3.66402C26.7204 3.58485 27.0125 3.52538 27.3112 3.48716ZM27.3357 3.30077C27.4688 3.28478 27.6032 3.27287 27.7387 3.26519C27.4841 3.21562 27.2246 3.18179 26.9612 3.16467C27.0876 3.20619 27.2125 3.25159 27.3357 3.30077ZM26.2405 3.15977C26.4859 3.21103 26.7268 3.27702 26.9624 3.35693C26.7033 3.40378 26.4499 3.46626 26.2028 3.54334C25.9702 3.42934 25.7307 3.3294 25.4855 3.24421C25.624 3.2202 25.7641 3.20069 25.9059 3.18584C26.0178 3.17411 26.1294 3.16545 26.2405 3.15977ZM26.2549 2.97692C27.026 2.94035 27.7749 3.04359 28.475 3.26531C31.8154 3.45591 34.4652 6.21533 34.4652 9.59142V16.3627C34.4652 18.0738 34.224 19.76 33.7605 21.3765H39.2881C42.8004 21.3765 45.6476 24.2135 45.6476 27.713C45.6476 28.6156 45.4583 29.4742 45.1169 30.2513C44.9925 31.0102 44.7354 31.7183 44.3722 32.3545C44.1688 33.0964 43.8388 33.7741 43.4108 34.3691C43.1309 35.0851 42.7322 35.7241 42.2448 36.2708C41.8911 36.9547 41.4268 37.5496 40.8838 38.0431C40.4601 38.6865 39.9359 39.2296 39.3441 39.6639C38.8553 40.2592 38.2773 40.7446 37.6433 41.1146C37.095 41.6556 36.4694 42.078 35.8003 42.38C35.1984 42.8608 34.532 43.2157 33.8352 43.4464C33.1858 43.8622 32.4855 44.1459 31.7679 44.3028C31.0786 44.6486 30.3525 44.8578 29.6225 44.9391C28.9005 45.2112 28.1564 45.3435 27.4218 45.3483C26.6753 45.5438 25.9215 45.5979 25.1904 45.5261C24.4276 45.6428 23.6721 45.6181 22.9526 45.4706C22.1817 45.5071 21.4331 45.4039 20.733 45.1822C17.3924 44.9919 14.7424 42.2324 14.7424 38.8561V33.2104C14.7424 31.0979 15.1099 29.0233 15.8098 27.0711H9.91762C6.40535 27.0711 3.55811 24.2341 3.55811 20.7345C3.55811 19.8325 3.74725 18.9746 4.08818 18.1978C4.21254 17.4387 4.46954 16.7303 4.83276 16.0938C5.03606 15.352 5.36589 14.6744 5.79374 14.0795C6.07403 13.362 6.47369 12.7219 6.96232 12.1744C7.31602 11.4912 7.77999 10.8971 8.32252 10.4041C8.74582 9.76142 9.26946 9.21876 9.86063 8.78483C10.3492 8.18948 10.9271 7.70407 11.5608 7.33393C12.1093 6.79256 12.7352 6.36992 13.4045 6.0678C14.0069 5.58647 14.6738 5.23133 15.3714 5.00062C16.0207 4.58493 16.721 4.30136 17.4385 4.1446C18.128 3.79872 18.8542 3.58957 19.5844 3.50837C20.3063 3.23624 21.0504 3.10389 21.785 3.09916C22.5316 2.90367 23.2856 2.84954 24.0167 2.92137C24.7797 2.80469 25.5353 2.82936 26.2549 2.97692ZM24.7387 3.03453C25.0025 3.02412 25.2642 3.03072 25.5226 3.05351C25.3887 3.07526 25.2563 3.10111 25.1256 3.1309C24.9978 3.09482 24.8688 3.06266 24.7387 3.03453ZM23.2967 3.07378C23.0373 3.07802 22.7763 3.09869 22.5151 3.13651C22.6474 3.15094 22.7792 3.16948 22.9099 3.19208C23.0367 3.14885 23.1657 3.10936 23.2967 3.07378ZM23.2799 3.26728C23.415 3.229 23.5522 3.19501 23.6916 3.16548C23.8017 3.14217 23.9117 3.12194 24.0215 3.10473C24.271 3.13016 24.5176 3.17068 24.7602 3.22565C24.5076 3.2992 24.2621 3.38771 24.0246 3.49008C23.7814 3.40092 23.5326 3.32647 23.2799 3.26728ZM22.5565 3.32435C22.3094 3.29495 22.0598 3.28032 21.809 3.28102C21.7016 3.30959 21.5942 3.34118 21.487 3.37585C21.3517 3.41971 21.2187 3.46779 21.0885 3.51988C21.3461 3.55243 21.6014 3.60059 21.8527 3.66395C22.0781 3.5374 22.3131 3.42381 22.5565 3.32435ZM22.1066 3.73354C22.3675 3.59736 22.6407 3.47872 22.9249 3.37947C23.2169 3.4322 23.5045 3.50572 23.7853 3.59917C23.5039 3.73459 23.2346 3.8898 22.9793 4.06285C22.6965 3.93185 22.4047 3.82185 22.1066 3.73354ZM21.626 3.79736C21.337 3.73364 21.0432 3.69045 20.7471 3.66844C20.4749 3.79675 20.2156 3.94321 19.9704 4.10585C20.2762 4.16264 20.5779 4.24167 20.8731 4.34253C21.1089 4.1438 21.3604 3.96135 21.626 3.79736ZM21.0721 4.41428C21.324 4.20934 21.5935 4.02323 21.8788 3.85862C22.1957 3.94249 22.5059 4.05135 22.8063 4.18433C22.524 4.38964 22.26 4.61728 22.0164 4.86434C21.7132 4.68776 21.3972 4.53755 21.0721 4.41428ZM20.912 4.54912C20.6418 4.7847 20.3935 5.04265 20.1696 5.31938C20.5181 5.48876 20.8537 5.69151 21.1716 5.92734C21.3811 5.59688 21.6205 5.28631 21.8868 4.99979C21.5741 4.82067 21.2478 4.67022 20.912 4.54912ZM20.7137 4.48136C20.4545 4.71493 20.2158 4.9688 19.9997 5.23985C19.6794 5.09578 19.3493 4.97927 19.0131 4.89051C19.242 4.66049 19.4905 4.44738 19.7569 4.25398C20.081 4.30439 20.4011 4.38035 20.7137 4.48136ZM19.7105 4.06309C19.9215 3.91373 20.1432 3.77628 20.375 3.652C20.1263 3.64848 19.8766 3.65994 19.6273 3.68672C19.5233 3.72636 19.4199 3.76897 19.317 3.81462C19.1869 3.87236 19.0597 3.93402 18.9356 3.99942C19.1952 4.00495 19.454 4.02626 19.7105 4.06309ZM18.6118 4.18271C18.9085 4.17376 19.2051 4.18611 19.4991 4.21937C19.2522 4.41011 19.0212 4.61771 18.8075 4.83988C18.5036 4.77033 18.1952 4.72316 17.8852 4.69853C18.1121 4.51127 18.3546 4.33863 18.6118 4.18271ZM18.5581 4.0025C18.6731 3.93392 18.791 3.86859 18.9117 3.80666C18.6589 3.86453 18.408 3.93882 18.1603 4.02992C18.2927 4.01662 18.4254 4.00749 18.5581 4.0025ZM17.4999 4.31749C17.745 4.26489 17.9922 4.22751 18.2399 4.2051C18.0225 4.35281 17.8165 4.51258 17.6223 4.68306C17.3634 4.67313 17.1037 4.67889 16.845 4.70041C16.9615 4.62247 17.0814 4.54793 17.2048 4.47698C17.3023 4.42088 17.4007 4.36773 17.4999 4.31749ZM16.8008 4.51126C16.5556 4.59511 16.3139 4.6951 16.0772 4.81144C16.2075 4.78443 16.3385 4.76154 16.4699 4.74276C16.5771 4.66262 16.6874 4.58539 16.8008 4.51126ZM16.1747 4.97738C15.9739 5.14696 15.7857 5.32735 15.6105 5.51717C15.3518 5.53429 15.0942 5.56707 14.8391 5.61543C14.9467 5.52579 15.0582 5.43917 15.1735 5.35576C15.2647 5.28973 15.3571 5.22653 15.4506 5.16618C15.6888 5.08835 15.9307 5.02545 16.1747 4.97738ZM16.5422 4.91641C16.3027 5.0983 16.0796 5.29527 15.8735 5.50518C16.1845 5.49738 16.4962 5.51216 16.8057 5.54968C16.995 5.30645 17.2029 5.07592 17.4286 4.86048C17.1326 4.85802 16.8363 4.87661 16.5422 4.91641ZM17.6885 4.86807C17.4438 5.08817 17.2191 5.326 17.0154 5.57862C17.3591 5.63186 17.6995 5.71332 18.033 5.82321C18.2196 5.53115 18.4304 5.25382 18.6637 4.99454C18.3422 4.92668 18.016 4.88446 17.6885 4.86807ZM18.868 5.04127C18.624 5.3037 18.4041 5.58608 18.2104 5.8846C18.5748 6.01678 18.93 6.18347 19.271 6.38494C19.4446 6.0345 19.6501 5.70071 19.8849 5.38805C19.5551 5.24243 19.2147 5.12676 18.868 5.04127ZM20.0545 5.46604C19.8133 5.78308 19.6033 6.12288 19.4274 6.4804C19.7272 6.66948 20.0152 6.88623 20.2878 7.1308L20.5082 7.32854C20.6525 6.89179 20.8436 6.47452 21.076 6.08324C20.7527 5.84206 20.4103 5.63623 20.0545 5.46604ZM21.2216 6.19531C20.9876 6.59258 20.7975 7.0172 20.657 7.46197L21.8366 8.52032C21.9164 8.05365 22.0473 7.60436 22.2235 7.1784L21.969 6.89672C21.7358 6.63862 21.4856 6.40476 21.2216 6.19531ZM22.3595 7.32886C22.1911 7.75325 22.0686 8.20075 21.9982 8.66528L25.3381 11.6617C28.0204 14.0682 29.9082 17.1904 30.8056 20.6189C30.8222 20.6285 30.8388 20.6381 30.8555 20.6475C30.2416 17.4271 28.7541 14.4052 26.5162 11.9288L22.3595 7.32886ZM31.062 20.7589C30.4593 17.4516 28.946 14.3456 26.6519 11.807L22.4369 7.14272C22.6233 6.71498 22.857 6.31245 23.1314 5.94171C23.3721 6.17757 23.5964 6.43629 23.8014 6.71738L27.7959 12.1955C29.6577 14.7488 30.7989 17.7188 31.146 20.801C31.1178 20.7872 31.0898 20.7732 31.062 20.7589ZM30.898 20.8786C30.8877 20.8732 30.8776 20.8678 30.8675 20.8623C30.8881 20.9461 30.9083 21.0302 30.9279 21.1143C30.9318 21.1175 30.9357 21.1207 30.9397 21.1238C30.9263 21.042 30.9124 20.9602 30.898 20.8786ZM31.1498 21.285C31.1344 21.1837 31.1182 21.0826 31.1011 20.9817C31.1235 20.9926 31.1461 21.0032 31.1686 21.0138C31.1788 21.1153 31.1882 21.217 31.1967 21.3188C31.181 21.3076 31.1654 21.2963 31.1498 21.285ZM30.5796 20.4806C29.6725 17.1586 27.8234 14.1362 25.216 11.7968L21.9691 8.88396C21.9424 9.1161 21.9288 9.35216 21.9288 9.59142V10.1426L24.0164 11.6539C27.0765 13.8693 29.3514 16.9571 30.5671 20.4726C30.5714 20.4752 30.5755 20.478 30.5796 20.4806ZM30.2045 20.0085C28.9617 16.7452 26.7859 13.8838 23.9091 11.8011L21.9288 10.3674V11.3395L22.7012 11.7839C26.0211 13.6937 28.6328 16.5789 30.2045 20.0085ZM21.7462 11.2345V10.2353L20.3743 9.24222C20.3722 9.47591 20.3834 9.71216 20.4084 9.95021L20.4662 10.4982L21.7462 11.2345ZM20.4898 10.7218L21.7462 11.4446V12.2049C21.6336 12.1522 21.5204 12.1006 21.4065 12.0501L20.5918 11.6887L20.4898 10.7218ZM20.2708 10.3857L20.2269 9.96921C20.1964 9.68045 20.186 9.39422 20.1943 9.11185L18.8832 8.16271C18.8069 8.61266 18.7806 9.07569 18.8086 9.54458L20.2708 10.3857ZM18.8257 9.76449L20.2944 10.6094L20.3992 11.6033L19.0489 11.0042L18.9339 10.4654C18.884 10.2312 18.8481 9.99723 18.8257 9.76449ZM18.6203 9.43627C18.6009 8.96334 18.6354 8.49679 18.7188 8.0437L18.4112 7.82104C18.129 7.61678 17.8354 7.43977 17.5333 7.28952C17.3873 7.72649 17.2898 8.18115 17.2452 8.64521L18.6203 9.43627ZM17.2293 8.84608L18.633 9.6536C18.6542 9.93541 18.6947 10.2191 18.7553 10.5032L18.8427 10.9128L17.3 10.2283C17.2229 9.76488 17.2006 9.30156 17.2293 8.84608ZM17.0719 8.54551C17.1219 8.08851 17.2217 7.64087 17.3674 7.21008C17.0009 7.04119 16.6231 6.91082 16.2396 6.8181C16.0698 7.17811 15.9352 7.55395 15.8377 7.94002C16.1707 8.0629 16.4979 8.21534 16.8159 8.39824L17.0719 8.54551ZM15.7955 8.1185C16.1118 8.23649 16.4225 8.38198 16.7246 8.55579L17.0533 8.74486C17.0177 9.20422 17.0326 9.67184 17.1014 10.1402L15.6512 9.49689C15.6468 9.03068 15.6961 8.56832 15.7955 8.1185ZM15.6648 7.87906C15.7616 7.50039 15.893 7.13136 16.0574 6.77696C15.7044 6.7029 15.3474 6.66031 14.9905 6.64854C14.8065 6.95576 14.6504 7.27747 14.5232 7.60956C14.9072 7.66331 15.2894 7.75272 15.6648 7.87906ZM14.4593 7.78447C14.8505 7.83672 15.2399 7.92702 15.6222 8.05678C15.5225 8.50042 15.4702 8.95604 15.4683 9.41578L15.1982 9.29596C14.8629 9.14718 14.5214 9.02966 14.1773 8.94214C14.2338 8.54802 14.3283 8.1602 14.4593 7.78447ZM14.3369 7.58628C14.4585 7.26197 14.6068 6.94706 14.7809 6.64517C14.4521 6.64541 14.1242 6.67173 13.8003 6.72359C13.6069 6.98955 13.4367 7.2687 13.2903 7.55794C13.6376 7.53877 13.9877 7.54789 14.3369 7.58628ZM13.199 7.74602C13.5553 7.72052 13.9149 7.72566 14.2738 7.76255C14.1476 8.13213 14.0554 8.51284 13.999 8.89952C13.6122 8.81296 13.2228 8.76383 12.8353 8.75038C12.9269 8.40689 13.0484 8.07069 13.199 7.74602ZM13.0791 7.57311C13.2135 7.29602 13.3687 7.02748 13.5445 6.77005C13.2543 6.82901 12.9682 6.90867 12.6886 7.00865C12.4924 7.23613 12.3154 7.47494 12.1577 7.72289C12.4603 7.65076 12.7683 7.60061 13.0791 7.57311ZM12.0232 7.94475C12.3399 7.8594 12.6633 7.79903 12.9902 7.76451C12.8488 8.08287 12.7344 8.41147 12.6475 8.74664C12.2961 8.74485 11.947 8.77225 11.6036 8.8275C11.7188 8.52465 11.8587 8.22935 12.0232 7.94475ZM11.9029 7.78919C12.0346 7.56728 12.181 7.35191 12.3419 7.1445C12.1132 7.24214 11.8897 7.35387 11.6729 7.47944C11.5943 7.55761 11.5173 7.63831 11.4421 7.72153C11.3467 7.82712 11.2557 7.93509 11.1689 8.04523C11.4083 7.94504 11.6534 7.85956 11.9029 7.78919ZM10.9478 8.34402C11.2153 8.2155 11.4913 8.1065 11.7736 8.01764C11.6258 8.29191 11.4997 8.57508 11.3952 8.86458C11.0891 8.92429 10.7882 9.00622 10.4949 9.10942C10.6257 8.8465 10.7766 8.59063 10.9478 8.34402ZM10.8252 8.20115C10.9022 8.09198 10.9831 7.9846 11.068 7.8792C10.8609 8.03444 10.6622 8.2039 10.4733 8.38734C10.5888 8.32155 10.7061 8.25946 10.8252 8.20115ZM9.98735 8.91787C10.1897 8.77048 10.4001 8.63616 10.6172 8.51527C10.479 8.73822 10.3561 8.96757 10.2484 9.2019C10.0078 9.2978 9.77313 9.40827 9.54567 9.53275C9.62032 9.41428 9.6995 9.29751 9.78324 9.18266C9.8493 9.09206 9.91737 9.0038 9.98735 8.91787ZM9.42774 9.37846C9.23826 9.55421 9.05857 9.74322 8.89015 9.94511C8.99797 9.86772 9.10807 9.79385 9.22021 9.72357C9.28532 9.60708 9.35449 9.49199 9.42774 9.37846ZM9.04634 10.0576C8.84324 10.2003 8.64818 10.3557 8.46248 10.5232C8.40171 10.6161 8.3431 10.7113 8.28675 10.8085C8.21567 10.9313 8.14929 11.0554 8.08759 11.1807C8.30068 11.0332 8.52244 10.899 8.7515 10.7787C8.83406 10.5345 8.93226 10.2937 9.04634 10.0576ZM8.6727 11.0289C8.41537 11.1742 8.16829 11.3378 7.93364 11.5186C7.81746 11.7956 7.72309 12.0773 7.64996 12.3618C7.91519 12.2002 8.19234 12.0578 8.47915 11.9361C8.521 11.6312 8.58538 11.3279 8.6727 11.0289ZM8.67527 11.8567C8.72485 11.5365 8.80014 11.2186 8.90164 10.906C9.19337 10.7571 9.4969 10.6312 9.80928 10.5297C9.73737 10.8705 9.69398 11.2156 9.67892 11.5615C9.33509 11.6326 8.9995 11.7316 8.67527 11.8567ZM8.45397 12.1455C8.15395 12.2789 7.86529 12.4357 7.59079 12.6142C7.52263 12.9355 7.48109 13.2596 7.46537 13.5832C7.7747 13.425 8.09805 13.2916 8.43254 13.1852C8.41124 12.8396 8.41819 12.4919 8.45397 12.1455ZM8.61227 13.1309C8.59289 12.776 8.60419 12.4189 8.64683 12.0637C8.97758 11.9298 9.32101 11.824 9.67353 11.7486C9.66805 12.139 9.69857 12.5294 9.76483 12.9145C9.37034 12.9513 8.98486 13.0245 8.61227 13.1309ZM8.44681 13.3718C8.10413 13.4835 7.77369 13.6245 7.4588 13.792C7.45365 14.1497 7.47988 14.5061 7.53638 14.8571C7.89575 14.7124 8.27143 14.5994 8.6599 14.5219C8.55362 14.1457 8.48231 13.7606 8.44681 13.3718ZM8.84018 14.4885C8.73086 14.1056 8.65889 13.713 8.62523 13.3167C9.00382 13.2059 9.39632 13.1305 9.7984 13.0942C9.88836 13.5398 10.0265 13.9772 10.2125 14.3979H9.91762C9.55038 14.3979 9.19039 14.429 8.84018 14.4885ZM8.71214 14.697C8.31608 14.7751 7.93364 14.8909 7.56875 15.0405C7.89442 16.7355 8.92985 18.2854 10.5477 19.2161L16.4329 22.6017C16.8513 22.8423 17.2339 23.132 17.5743 23.4621C17.642 23.3553 17.7108 23.2491 17.7808 23.1436C17.4383 22.6732 17.0211 22.2548 16.5404 21.9068L11.0424 17.9267C9.89336 17.0949 9.10594 15.9513 8.71214 14.697ZM17.8889 22.9829C17.5428 22.5191 17.1256 22.1056 16.6477 21.7597L11.1498 17.7796C10.0402 16.9763 9.27788 15.874 8.89316 14.6641C9.22638 14.6087 9.56861 14.5799 9.91762 14.5799H10.2964C10.6452 15.3056 11.1397 15.9769 11.7771 16.5488L16.8274 21.0797C17.3469 21.5458 17.7688 22.0997 18.078 22.7096C18.0141 22.8002 17.951 22.8912 17.8889 22.9829ZM17.8934 23.3041C17.8301 23.4003 17.7677 23.4971 17.7064 23.5945C17.7365 23.6256 17.7662 23.657 17.7956 23.6889C17.8479 23.5913 17.901 23.4941 17.955 23.3975C17.9349 23.3661 17.9142 23.3351 17.8934 23.3041ZM18.0561 23.2192C18.0384 23.1928 18.0205 23.1666 18.0023 23.1405C18.0572 23.0591 18.1127 22.9781 18.1689 22.8976C18.18 22.9217 18.191 22.9459 18.2017 22.9702C18.1524 23.0528 18.1039 23.1358 18.0561 23.2192ZM18.0651 23.5749C18.0178 23.6609 17.9711 23.7472 17.925 23.8339C17.9457 23.8579 17.9662 23.882 17.9866 23.9064C18.0254 23.8185 18.065 23.7308 18.1053 23.6434C18.0921 23.6205 18.0787 23.5976 18.0651 23.5749ZM18.199 23.4434C18.1886 23.4263 18.1781 23.409 18.1675 23.392C18.2077 23.321 18.2484 23.2503 18.2897 23.1799C18.2952 23.194 18.3007 23.2081 18.3061 23.2221C18.2699 23.2957 18.2342 23.3694 18.199 23.4434ZM18.2148 23.8429C18.1811 23.9172 18.1481 23.9918 18.1156 24.0665C18.1278 24.0824 18.14 24.0983 18.152 24.1141C18.1793 24.0368 18.2071 23.9597 18.2354 23.8828C18.2286 23.8695 18.2218 23.8562 18.2148 23.8429ZM18.321 23.655C18.3175 23.6484 18.3139 23.6419 18.3102 23.6353C18.3373 23.5774 18.3647 23.5195 18.3924 23.4618L18.3942 23.4673C18.3695 23.5297 18.3451 23.5923 18.321 23.655ZM18.3464 24.1122C18.3249 24.1725 18.3036 24.2329 18.2828 24.2934C18.2871 24.2996 18.2915 24.3058 18.2958 24.312C18.3132 24.2472 18.3309 24.1824 18.3489 24.1177C18.3481 24.1158 18.3473 24.114 18.3464 24.1122ZM18.2345 24.5475C18.2264 24.5349 18.218 24.5223 18.2097 24.5098C18.184 24.5874 18.1588 24.665 18.1343 24.7429C18.1482 24.7574 18.1621 24.772 18.1758 24.7866C18.1948 24.7069 18.2145 24.6271 18.2345 24.5475ZM18.3247 24.9513C18.339 24.8888 18.3539 24.8264 18.369 24.7641C18.369 24.7641 18.371 24.7674 18.372 24.7692C18.3608 24.8356 18.35 24.902 18.3395 24.9684C18.3346 24.9627 18.3296 24.957 18.3247 24.9513ZM18.1259 25.0016C18.1082 24.9819 18.0903 24.9625 18.0723 24.943C18.0438 25.0371 18.0161 25.1313 17.9891 25.2258C18.0144 25.245 18.0396 25.2644 18.0645 25.2841C18.0842 25.1898 18.1047 25.0957 18.1259 25.0016ZM18.224 25.414C18.2403 25.3339 18.2572 25.254 18.2746 25.174C18.2842 25.1857 18.2938 25.1974 18.3034 25.209C18.2917 25.2904 18.2805 25.3717 18.2699 25.4531C18.2547 25.44 18.2394 25.427 18.224 25.414ZM18.0237 25.4846C17.9948 25.4611 17.9656 25.4378 17.9362 25.4149C17.9059 25.526 17.8766 25.6373 17.8484 25.7488C17.8866 25.769 17.9246 25.7898 17.9624 25.811C17.9818 25.702 18.0022 25.5933 18.0237 25.4846ZM18.1304 25.909C18.1473 25.8123 18.165 25.7159 18.1835 25.6195C18.2034 25.6369 18.2231 25.6545 18.2428 25.6723C18.2316 25.7678 18.2212 25.8634 18.2114 25.959C18.1846 25.9421 18.1576 25.9255 18.1304 25.909ZM17.9294 26.0017C17.8877 25.9776 17.8456 25.9541 17.8032 25.9312C17.7718 26.0609 17.7419 26.191 17.7134 26.3212C17.7661 26.339 17.8185 26.3573 17.8706 26.3765C17.8889 26.2514 17.9084 26.1265 17.9294 26.0017ZM18.0453 26.4438C18.0617 26.33 18.0791 26.2162 18.0977 26.1027C18.1293 26.1224 18.1607 26.1424 18.192 26.1627C18.182 26.273 18.1731 26.3834 18.1651 26.4938C18.1254 26.4767 18.0855 26.4601 18.0453 26.4438ZM17.8446 26.5609C17.7885 26.5399 17.732 26.5197 17.6751 26.5004C17.6437 26.6518 17.6142 26.8034 17.5866 26.9553C17.6552 26.9658 17.7235 26.9775 17.7915 26.9903C17.8075 26.8471 17.8252 26.7039 17.8446 26.5609ZM17.9711 27.0272C17.9858 26.8947 18.0019 26.7623 18.0195 26.6299C18.0641 26.6483 18.1083 26.6673 18.1523 26.6869C18.1447 26.8132 18.1383 26.9395 18.1332 27.0657C18.0794 27.0521 18.0253 27.0393 17.9711 27.0272ZM17.7722 27.1718C17.7001 27.158 17.6277 27.1456 17.5551 27.1346C17.0674 29.9892 17.2707 32.9459 18.1853 35.7507L19.9362 41.1201C20.465 42.7414 21.6049 43.9946 23.0193 44.7086C23.3327 44.6067 23.6351 44.4805 23.9241 44.3323C22.9214 43.6877 22.0891 42.7549 21.5675 41.5876L19.2628 36.4299C17.9538 33.5006 17.4542 30.3075 17.7722 27.1718ZM24.1088 44.2336C23.0967 43.606 22.2556 42.6805 21.7343 41.5136L19.4296 36.356C18.1364 33.4618 17.641 30.3076 17.9519 27.2094C18.0104 27.2227 18.0687 27.2368 18.1267 27.2519C18.0265 30.6109 18.8587 33.9617 20.5725 36.9193L23.4055 41.8087C23.8267 42.5354 24.3704 43.1476 24.9957 43.6343C24.719 43.8584 24.4224 44.0592 24.1088 44.2336ZM24.1039 44.4437C23.8318 44.5892 23.5478 44.7154 23.2538 44.8208C23.5232 44.9429 23.8014 45.0459 24.0864 45.1288C24.3794 45.0598 24.6634 44.9702 24.9373 44.862C24.6501 44.7432 24.3714 44.6034 24.1039 44.4437ZM25.177 44.7614C24.8707 44.645 24.5735 44.5044 24.2888 44.3409C24.591 44.1663 24.8774 43.9674 25.1455 43.7472C25.4285 43.9543 25.7271 44.1366 26.0374 44.2929C25.7654 44.4704 25.478 44.6274 25.177 44.7614ZM25.1826 44.9577C24.9451 45.06 24.6996 45.1484 24.447 45.222C24.6896 45.2769 24.9363 45.3174 25.1856 45.3429C25.2956 45.3256 25.4057 45.3053 25.5159 45.282C25.6551 45.2525 25.7923 45.2186 25.9272 45.1804C25.6745 45.1212 25.4259 45.0467 25.1826 44.9577ZM26.2824 45.0682C25.9903 45.0155 25.7027 44.942 25.422 44.8486C25.7033 44.7132 25.9725 44.558 26.2279 44.385C26.5107 44.516 26.8024 44.6259 27.1005 44.7142C26.8396 44.8503 26.5665 44.969 26.2824 45.0682ZM26.2972 45.2555C26.1705 45.2987 26.0417 45.3382 25.9108 45.3737C26.17 45.3694 26.4307 45.3487 26.6916 45.311C26.5594 45.2966 26.4279 45.2781 26.2972 45.2555ZM27.3977 45.1665C27.1471 45.1672 26.8977 45.1526 26.6508 45.1232C26.8943 45.0238 27.1291 44.9103 27.3546 44.7837C27.6058 44.847 27.8608 44.8951 28.1183 44.9276C27.988 44.9797 27.8551 45.0278 27.7197 45.0716C27.6125 45.1063 27.5053 45.1379 27.3977 45.1665ZM28.1222 45.1217C28.3795 45.0905 28.6367 45.0427 28.8924 44.978C28.7594 44.9774 28.6265 44.9727 28.4941 44.9639C28.3726 45.02 28.2485 45.0727 28.1222 45.1217ZM28.8318 44.7955C29.0805 44.799 29.3303 44.7875 29.5795 44.7607C29.6834 44.7211 29.7867 44.6785 29.8896 44.6329C30.0196 44.5752 30.1468 44.5135 30.2708 44.4482C30.0113 44.4426 29.7525 44.4214 29.496 44.3846C29.285 44.5338 29.0634 44.6713 28.8318 44.7955ZM29.7074 44.2283C30.0014 44.2615 30.2981 44.2738 30.5948 44.2648C30.852 44.1089 31.0944 43.9363 31.3212 43.7491C31.0112 43.7245 30.7028 43.6774 30.3989 43.6079C30.1852 43.8301 29.9544 44.0376 29.7074 44.2283ZM30.1934 43.5574C29.9644 43.7873 29.716 44.0003 29.4496 44.1937C29.1257 44.1434 28.8059 44.0675 28.4932 43.9666C28.7524 43.7331 28.9911 43.4794 29.2073 43.2084C29.5273 43.3523 29.8572 43.4687 30.1934 43.5574ZM30.5428 43.4532C30.8643 43.521 31.1905 43.5631 31.518 43.5795C31.7626 43.3595 31.9873 43.1217 32.1909 42.8692C31.8473 42.816 31.5068 42.7346 31.1733 42.6248C30.9867 42.9168 30.7761 43.194 30.5428 43.4532ZM30.996 42.5635C30.8023 42.8619 30.5825 43.1442 30.3385 43.4066C29.9919 43.3212 29.6517 43.2057 29.322 43.0602C29.5567 42.7477 29.7624 42.4141 29.936 42.0638C30.2767 42.265 30.6317 42.4315 30.996 42.5635ZM31.272 42.4655C31.6152 42.5758 31.9657 42.6553 32.3194 42.7041C32.5345 42.4178 32.7235 42.1141 32.8849 41.7971C32.5087 41.7037 32.1381 41.5751 31.778 41.4104C31.6421 41.7769 31.4726 42.1302 31.272 42.4655ZM31.6124 41.3318C31.475 41.7055 31.3016 42.0653 31.0951 42.4057C30.7235 42.2736 30.3615 42.1047 30.0147 41.8988C30.205 41.4856 30.3512 41.0508 30.449 40.6015L30.687 40.7738C30.9842 40.989 31.2939 41.1748 31.6124 41.3318ZM31.839 41.2381C32.2055 41.4069 32.5834 41.5371 32.9669 41.6298C33.1366 41.2698 33.2713 40.8939 33.3688 40.5079C33.0355 40.385 32.7082 40.2325 32.3901 40.0495L32.1347 39.9026C32.0847 40.3597 31.9848 40.8073 31.839 41.2381ZM31.9614 39.803C31.9168 40.267 31.8193 40.7217 31.6732 41.1587C31.3708 41.0084 31.0768 40.8312 30.7942 40.6267L30.4885 40.4052C30.5721 39.9521 30.6066 39.4855 30.5873 39.0124L31.9614 39.803ZM32.1534 39.7033L32.4814 39.8919C32.7836 40.0659 33.0946 40.2114 33.411 40.3294C33.5104 39.8797 33.5597 39.4173 33.5554 38.9512L32.1055 38.3079C32.1743 38.7764 32.1889 39.2439 32.1534 39.7033ZM31.9069 38.2199C31.9839 38.6833 32.0062 39.1467 31.9774 39.6021L30.5746 38.7951C30.5534 38.5129 30.5129 38.2289 30.4522 37.9444L30.365 37.5359L31.9069 38.2199ZM32.0702 38.0932L33.5503 38.7498C33.531 38.2938 33.4603 37.8354 33.3351 37.3825L31.7296 36.8627L31.8592 37.2601C31.9493 37.5366 32.0193 37.8148 32.0702 38.0932ZM31.515 36.7933L31.6855 37.3163C31.7599 37.5443 31.8201 37.7735 31.8668 38.003L30.3181 37.3159L30.1096 36.3383C30.1173 36.3408 30.125 36.3433 30.1328 36.3458L31.515 36.7933ZM31.6598 36.6489L33.2724 37.171C33.2019 36.9477 33.118 36.726 33.0201 36.5069L32.7956 36.0044L31.3743 35.7034C31.3661 35.7017 31.358 35.7 31.3498 35.6982L31.6598 36.6489ZM31.1431 35.6529L31.4452 36.5794L30.1892 36.1728C30.1479 36.1594 30.1067 36.146 30.0656 36.1322L29.8934 35.3248C30.3046 35.4484 30.7215 35.5579 31.1431 35.6529ZM31.2845 35.498C31.327 35.5073 31.3696 35.5165 31.4122 35.5255L32.7038 35.799L32.3061 34.909C31.8767 34.8585 31.4506 34.793 31.0285 34.7128L31.2845 35.498ZM30.8234 34.6728L31.0773 35.4512C30.6632 35.3553 30.2539 35.2453 29.85 35.1215L29.698 34.4088C30.0695 34.5083 30.4448 34.5964 30.8234 34.6728ZM30.964 34.5151C31.3788 34.5962 31.7975 34.6632 32.2196 34.7154L31.8854 33.9675C31.5007 33.931 31.1181 33.8825 30.738 33.8222L30.964 34.5151ZM30.5352 33.7888L30.7586 34.4738C30.3873 34.3967 30.0194 34.3082 29.6553 34.2086L29.5227 33.5868C29.8577 33.6635 30.1953 33.7309 30.5352 33.7888ZM30.6746 33.6276C31.0473 33.6888 31.4227 33.7384 31.8 33.7764L30.7155 31.3493C30.2325 30.2684 30.0987 29.0738 30.3183 27.9275C30.3094 27.9384 30.3003 27.9492 30.2914 27.9602C29.7546 29.2008 29.6867 30.598 30.1082 31.8906L30.6746 33.6276ZM30.5786 27.6034C30.2609 28.8203 30.364 30.1155 30.8822 31.2753L32.0087 33.7962C32.4297 33.8336 32.8531 33.8566 33.2783 33.8646L31.4294 30.6737C30.8668 29.7028 30.6053 28.5977 30.6629 27.4951C30.635 27.5313 30.6069 27.5674 30.5786 27.6034ZM30.8668 27.2261C30.7476 28.3852 30.9953 29.5608 31.5875 30.5827L33.4907 33.8673C33.5344 33.8676 33.5782 33.8678 33.6219 33.8678H34.9415L32.0683 29.9274C31.4501 29.0796 31.0812 28.0876 30.988 27.0611C30.9479 27.1164 30.9075 27.1713 30.8668 27.2261ZM31.1545 26.8282C31.2095 27.8988 31.574 28.9399 32.2161 29.8204L35.1672 33.8678H36.8626C36.7264 33.6772 36.5778 33.4922 36.4169 33.3142L32.6254 29.1186C31.9764 28.4002 31.5253 27.5379 31.3019 26.6149C31.2534 26.6863 31.2041 26.7575 31.1545 26.8282ZM31.442 26.4065C31.6426 27.3626 32.0938 28.2584 32.7611 28.9968L36.5526 33.1925C36.7477 33.4085 36.9253 33.6342 37.0852 33.8678H38.7055C38.3691 33.193 37.9018 32.5688 37.3057 32.0339L33.095 28.2562C32.4403 27.6689 31.9356 26.9463 31.6096 26.1484C31.5544 26.2349 31.4986 26.3209 31.442 26.4065ZM31.5278 25.9366C31.4836 26.0069 31.439 26.0769 31.394 26.1468C31.3932 26.1419 31.3924 26.137 31.3916 26.1321C31.4337 26.0565 31.4752 25.9805 31.5162 25.9043C31.52 25.9151 31.5238 25.9258 31.5278 25.9366ZM31.73 25.9568C32.0431 26.7782 32.5496 27.5221 33.2172 28.121L37.4279 31.8987C38.0654 32.4707 38.5598 33.1419 38.9086 33.8678H39.2881C39.637 33.8678 39.9792 33.8389 40.3123 33.7836C39.9276 32.5737 39.1652 31.4713 38.0558 30.6682L33.4717 27.3496C32.8371 26.8903 32.3095 26.3119 31.9135 25.6545C31.8534 25.7558 31.7922 25.8566 31.73 25.9568ZM31.8087 25.4731C31.757 25.5614 31.7045 25.6491 31.6513 25.7366C31.6453 25.7185 31.6393 25.7005 31.6335 25.6824C31.6808 25.5913 31.7274 25.4999 31.7733 25.4081C31.785 25.4298 31.7967 25.4516 31.8087 25.4731ZM32.019 25.4744C32.4078 26.1469 32.9368 26.7376 33.5791 27.2025L38.163 30.5209C39.3121 31.3528 40.0996 32.4964 40.4933 33.7507C40.8895 33.6726 41.2722 33.5568 41.6372 33.4071C41.3115 31.712 40.2761 30.1623 38.6583 29.2317L33.7513 26.4088C33.1626 26.0702 32.6446 25.6345 32.2157 25.1257C32.1515 25.2425 32.0859 25.3588 32.019 25.4744ZM32.0913 24.9728C32.0339 25.0783 31.9754 25.1833 31.9158 25.2878C31.9014 25.2603 31.887 25.2327 31.8729 25.2049C31.9243 25.0988 31.9745 24.9922 32.0238 24.8852C32.046 24.9146 32.0685 24.9438 32.0913 24.9728ZM32.3093 24.953C32.7335 25.4697 33.2512 25.9111 33.8425 26.2513L38.7496 29.0742C40.4027 30.0251 41.4652 31.6039 41.8089 33.3337C42.138 33.1869 42.4518 33.0122 42.7475 32.8127C42.5519 30.6635 41.2257 28.6805 39.1065 27.7404L33.9302 25.444C33.4136 25.2149 32.9385 24.9137 32.517 24.5532C32.4494 24.6873 32.3801 24.8206 32.3093 24.953ZM32.3756 24.4282C32.3138 24.5518 32.2505 24.6747 32.1857 24.797C32.16 24.7633 32.1347 24.7293 32.1098 24.6951C32.164 24.5733 32.217 24.4508 32.2687 24.328C32.3038 24.3618 32.3395 24.3953 32.3756 24.4282ZM32.6008 24.3849C33.0176 24.7473 33.4898 25.0495 34.0046 25.2779L39.1809 27.5742C41.3284 28.527 42.685 30.5201 42.919 32.6927C43.1847 32.5001 43.4342 32.287 43.6654 32.0556C43.6624 29.4639 42.0035 27.0548 39.3956 26.2105L34.0067 24.4658C33.5879 24.3302 33.1897 24.1486 32.818 23.9264C32.7478 24.0801 32.6754 24.233 32.6008 24.3849ZM32.6617 23.8295C32.5963 23.9732 32.529 24.116 32.4598 24.2579C32.4204 24.2214 32.3817 24.1843 32.3436 24.1465C32.4002 24.0075 32.4551 23.8678 32.5082 23.7274C32.5589 23.7622 32.61 23.7962 32.6617 23.8295ZM32.8934 23.7592C33.2586 23.9796 33.6506 24.1593 34.0632 24.2928L39.452 26.0375C42.0741 26.8864 43.7643 29.2717 43.845 31.8682C44.0449 31.6506 44.2292 31.4188 44.3964 31.1743C44.6466 28.1343 42.5969 25.3099 39.5231 24.6589L33.9808 23.485C33.6852 23.4225 33.3971 23.3374 33.1185 23.2312C33.0462 23.4084 32.9712 23.5845 32.8934 23.7592ZM32.949 23.1636C32.8809 23.3305 32.8104 23.4966 32.7372 23.6615C32.6822 23.6256 32.6277 23.5889 32.5739 23.5513C32.6321 23.3924 32.6882 23.2327 32.742 23.0723C32.8104 23.1041 32.8794 23.1345 32.949 23.1636ZM33.1864 23.0623C33.4554 23.1646 33.7335 23.2467 34.0187 23.3071L39.561 24.481C42.6149 25.1277 44.687 27.8583 44.5968 30.8615C44.7243 30.6486 44.8391 30.4275 44.9404 30.1992C44.9579 30.0894 44.9727 29.9786 44.9845 29.8669C45.3411 26.4863 42.8798 23.4578 39.4871 23.1025L33.852 22.5124C33.7055 22.497 33.5602 22.4761 33.4163 22.45C33.3433 22.6554 33.2666 22.8597 33.1864 23.0623ZM33.2354 22.414C33.1659 22.6088 33.093 22.8025 33.0169 22.9946C32.9437 22.9641 32.8711 22.932 32.7994 22.8983C32.8584 22.7163 32.9146 22.5335 32.9679 22.3497C33.0563 22.3732 33.1455 22.3946 33.2354 22.414ZM33.477 22.276C33.6073 22.299 33.7386 22.3176 33.8711 22.3315L39.5062 22.9216C42.8768 23.2746 45.3545 26.1904 45.1941 29.5216C45.3703 28.9498 45.465 28.3424 45.465 27.713C45.465 24.314 42.6995 21.5584 39.2881 21.5584H33.7073C33.6355 21.7993 33.5587 22.0385 33.477 22.276ZM33.517 21.5574C33.4479 21.7868 33.3743 22.0147 33.2961 22.2409C33.2026 22.2212 33.1097 22.1991 33.0176 22.1747C33.0762 21.9647 33.1311 21.7537 33.1821 21.5417C33.2933 21.5501 33.405 21.5554 33.517 21.5574ZM33.5706 21.3763C34.0389 19.7608 34.2826 18.0743 34.2826 16.3627V9.59142C34.2826 6.54965 32.0681 4.02326 29.1578 3.52565C31.1532 4.42099 32.6309 6.31954 32.8762 8.64447L33.5865 15.3787C33.7997 17.3987 33.6711 19.4193 33.2243 21.3624C33.3392 21.3706 33.4547 21.3752 33.5706 21.3763ZM32.9983 21.5248C32.9069 21.5149 32.8159 21.5028 32.7253 21.4887C32.6917 21.6769 32.655 21.8647 32.6154 22.0518C32.6903 22.0777 32.7658 22.1022 32.8419 22.1251C32.8976 21.9259 32.9497 21.7258 32.9983 21.5248ZM32.7922 22.3001C32.7198 22.2785 32.6479 22.2554 32.5766 22.2309C32.5399 22.396 32.5009 22.5606 32.4596 22.7246C32.5171 22.7565 32.5752 22.7874 32.6338 22.8172C32.6891 22.6457 32.7419 22.4733 32.7922 22.3001ZM32.5764 22.9923C32.5213 22.9646 32.4669 22.9361 32.4128 22.9066C32.3746 23.0519 32.3347 23.1966 32.2929 23.341C32.3349 23.3745 32.3774 23.4074 32.4203 23.4398C32.4743 23.2913 32.5263 23.1421 32.5764 22.9923ZM32.3545 23.6179C32.3151 23.5888 32.276 23.5592 32.2374 23.5292C32.199 23.6568 32.1592 23.7839 32.118 23.9107C32.1464 23.9422 32.1752 23.9734 32.2044 24.0042C32.2559 23.876 32.3059 23.7472 32.3545 23.6179ZM32.1288 24.189C32.1031 24.1624 32.0776 24.1357 32.0524 24.1087C32.0147 24.2201 31.976 24.3313 31.9362 24.4421C31.9531 24.4682 31.9702 24.4943 31.9876 24.5202C32.0357 24.4103 32.0828 24.2999 32.1288 24.189ZM31.9005 24.7157C31.8862 24.6954 31.8722 24.675 31.8582 24.6546C31.8223 24.7506 31.7856 24.8463 31.7481 24.9418C31.7558 24.9592 31.7637 24.9767 31.7716 24.9941C31.8153 24.9016 31.8583 24.8089 31.9005 24.7157ZM31.6696 25.2058C31.6646 25.1955 31.6596 25.1851 31.6547 25.1747C31.6218 25.2549 31.5885 25.3348 31.5546 25.4145C31.5559 25.4194 31.5572 25.4242 31.5584 25.429C31.5961 25.3549 31.6332 25.2804 31.6696 25.2058ZM31.6469 24.6977C31.6765 24.62 31.7055 24.5421 31.734 24.4641C31.7278 24.4542 31.7217 24.4443 31.7156 24.4345C31.6915 24.5175 31.6667 24.6004 31.6413 24.6832C31.6432 24.688 31.6451 24.6929 31.6469 24.6977ZM31.7841 24.193C31.7937 24.2096 31.8034 24.2263 31.8132 24.2429C31.847 24.1465 31.8799 24.0499 31.912 23.953C31.8957 23.9342 31.8794 23.9153 31.8633 23.8963C31.8377 23.9954 31.8114 24.0942 31.7841 24.193ZM31.7199 23.7198C31.6997 23.8003 31.6791 23.8805 31.6578 23.9607C31.6556 23.9562 31.6532 23.9516 31.6509 23.9471C31.6675 23.8624 31.6834 23.7774 31.6986 23.6925C31.7057 23.7016 31.7128 23.7107 31.7199 23.7198ZM31.9186 23.6769C31.9382 23.7012 31.9581 23.7255 31.9781 23.7495C32.0145 23.6352 32.0498 23.5205 32.0838 23.4055C32.0554 23.3818 32.0271 23.3578 31.9991 23.3335C31.9733 23.4481 31.9465 23.5626 31.9186 23.6769ZM31.8432 23.1932C31.8214 23.2928 31.7988 23.3923 31.7753 23.4916C31.764 23.4762 31.7527 23.4607 31.7415 23.4453C31.7582 23.3443 31.774 23.2433 31.7891 23.1422C31.8071 23.1593 31.8251 23.1764 31.8432 23.1932ZM32.0436 23.1297C32.0753 23.1581 32.1072 23.1863 32.1395 23.214C32.1773 23.0809 32.2137 22.9475 32.2484 22.8137C32.2061 22.7888 32.164 22.7635 32.1224 22.7375C32.0976 22.8685 32.0713 22.9993 32.0436 23.1297ZM31.9567 22.6305C31.9349 22.7486 31.9118 22.8663 31.8876 22.984C31.8652 22.9622 31.843 22.9404 31.8209 22.9182C31.8369 22.8016 31.8515 22.6847 31.8652 22.5678C31.8955 22.589 31.926 22.61 31.9567 22.6305ZM32.1579 22.5446C32.2033 22.5736 32.249 22.602 32.2952 22.6297C32.3332 22.4764 32.3693 22.3226 32.4034 22.1685C32.3457 22.1466 32.2884 22.1239 32.2315 22.1002C32.2088 22.2486 32.1843 22.3967 32.1579 22.5446ZM32.0583 22.0249C32.0377 22.1615 32.0157 22.298 31.992 22.4342C31.957 22.41 31.9224 22.3855 31.888 22.3606C31.9018 22.2279 31.9142 22.0952 31.9252 21.9624C31.9693 21.9838 32.0136 22.0046 32.0583 22.0249ZM32.2589 21.9144C32.3196 21.9401 32.3806 21.9648 32.4422 21.9885C32.4792 21.8121 32.5136 21.6351 32.5454 21.4577C32.4711 21.4436 32.397 21.4281 32.3234 21.4111C32.3042 21.5791 32.2828 21.7468 32.2589 21.9144ZM32.1447 21.3671C32.127 21.524 32.1073 21.6806 32.0855 21.8371C32.0367 21.8143 31.9884 21.7909 31.9403 21.7668C31.951 21.617 31.9599 21.4672 31.9668 21.3172C32.0258 21.3347 32.0851 21.3514 32.1447 21.3671ZM32.1643 21.1841C32.4179 18.7072 32.1576 16.1809 31.3705 13.7673L29.2705 7.32742C28.7419 5.70629 27.602 4.45322 26.1878 3.73917C25.8744 3.84107 25.572 3.96726 25.2829 4.11551C26.2855 4.7601 27.1175 5.69277 27.6391 6.85989L30.4032 13.0458C31.549 15.6101 32.0747 18.3765 31.9747 21.1294C32.0375 21.1487 32.1008 21.1669 32.1643 21.1841ZM31.794 21.0706C31.8845 18.3624 31.3636 15.6423 30.2364 13.1198L27.4723 6.93388C26.951 5.76722 26.1101 4.84175 25.0982 4.21423C24.7848 4.38867 24.488 4.58954 24.2113 4.81379C24.8363 5.30036 25.3798 5.91235 25.8007 6.6388L29.1986 12.5029C30.7159 15.1215 31.5422 18.0482 31.6422 21.016C31.6925 21.0349 31.7432 21.0531 31.794 21.0706ZM31.7867 21.2603C31.7401 21.2448 31.6938 21.2286 31.6478 21.212C31.6509 21.3452 31.6524 21.4785 31.6525 21.6119C31.6893 21.6331 31.7264 21.6539 31.7637 21.6744C31.773 21.5364 31.7806 21.3984 31.7867 21.2603ZM31.7493 21.8732C31.7165 21.856 31.6839 21.8383 31.6515 21.8204C31.6503 21.9381 31.6479 22.0557 31.6444 22.1734C31.6686 22.193 31.693 22.2126 31.7176 22.2318C31.7293 22.1124 31.7399 21.9928 31.7493 21.8732ZM31.6954 22.4446C31.6755 22.4297 31.6558 22.4146 31.6362 22.3994C31.6318 22.5017 31.6266 22.604 31.6206 22.7063C31.6334 22.7206 31.6462 22.7348 31.6591 22.7489C31.6721 22.6476 31.6842 22.5461 31.6954 22.4446ZM31.6278 22.9816C31.6199 22.9734 31.6119 22.9651 31.604 22.9566C31.5977 23.0426 31.5907 23.1287 31.5832 23.2146C31.586 23.2189 31.5887 23.2231 31.5916 23.2274C31.6043 23.1455 31.6163 23.0636 31.6278 22.9816ZM31.4486 22.5053C31.4527 22.4224 31.4561 22.3395 31.4589 22.2565C31.4501 22.2491 31.4411 22.2415 31.4323 22.2341C31.4351 22.3204 31.4372 22.4068 31.4388 22.4932C31.442 22.4973 31.4453 22.5013 31.4486 22.5053ZM31.4226 21.9833C31.4368 21.9961 31.4513 22.009 31.4656 22.0218C31.4679 21.9197 31.4693 21.8176 31.4698 21.7155C31.4484 21.7027 31.4271 21.6897 31.406 21.6766C31.4123 21.7788 31.4178 21.8809 31.4226 21.9833ZM31.2147 21.553C31.2205 21.6357 31.2257 21.7184 31.2305 21.8012C31.2267 21.7976 31.2231 21.7939 31.2195 21.7902C31.2088 21.7045 31.1976 21.6189 31.1858 21.5333C31.1955 21.54 31.2051 21.5464 31.2147 21.553ZM31.3903 21.4509C31.4166 21.4681 31.443 21.485 31.4695 21.5017C31.4687 21.3816 31.4666 21.2616 31.4634 21.1417C31.429 21.1278 31.3946 21.1136 31.3604 21.0991C31.3715 21.2163 31.3815 21.3336 31.3903 21.4509ZM31.3396 20.8917C31.3784 20.909 31.4176 20.9258 31.4569 20.9423C31.3459 18.0314 30.5291 15.1629 29.0405 12.5939L25.6426 6.72976C25.227 6.01229 24.6881 5.40978 24.0681 4.93341C23.766 5.19359 23.4896 5.48246 23.2429 5.79577C23.4968 6.04291 23.7334 6.31466 23.9491 6.61045L27.9436 12.0886C29.8465 14.6982 31.004 17.7386 31.3396 20.8917ZM23.1099 5.67002C23.3528 5.36316 23.6236 5.07922 23.9185 4.822C23.6263 4.61133 23.3176 4.42775 22.9964 4.27235C22.7029 4.47852 22.4289 4.70922 22.1772 4.96113C22.5059 5.16586 22.8185 5.40241 23.1099 5.67002ZM22.9984 5.81508C22.7022 5.54161 22.3834 5.3013 22.0473 5.09501C21.7742 5.38522 21.5296 5.70129 21.3171 6.03856C21.5955 6.25784 21.8591 6.50337 22.1046 6.775L22.303 6.99452C22.4924 6.57517 22.7262 6.18003 22.9984 5.81508ZM23.1698 4.15493C23.48 4.31136 23.7785 4.49363 24.0617 4.7008C24.3297 4.4805 24.6161 4.28165 24.9184 4.10689C24.6336 3.94338 24.3365 3.80282 24.0301 3.68641C23.7292 3.82039 23.4417 3.97738 23.1698 4.15493ZM24.2698 3.58574C24.5571 3.7046 24.8357 3.84438 25.1032 4.0041C25.3753 3.8586 25.6593 3.73227 25.9534 3.62691C25.684 3.50475 25.4057 3.40167 25.1207 3.31882C24.8277 3.38794 24.5437 3.47748 24.2698 3.58574ZM29.7338 19.4522C28.1556 16.3345 25.6908 13.7138 22.61 11.9414L21.9288 11.5496V12.2916C25.1985 13.8665 27.9075 16.366 29.7338 19.4522ZM29.2069 18.9469C27.4274 16.1907 24.9171 13.9513 21.9288 12.4939V13.1308C24.8232 14.4132 27.3294 16.4201 29.2069 18.9469ZM21.7462 13.0511V12.4061C21.6091 12.3412 21.4712 12.2779 21.3323 12.2163L20.6138 11.8976L20.6917 12.6357C21.0484 12.7636 21.3999 12.9022 21.7462 13.0511ZM20.7129 12.8369C21.0624 12.9641 21.4069 13.1017 21.7462 13.2495V13.8125C21.4278 13.6896 21.1056 13.5754 20.7798 13.4701L20.7129 12.8369ZM20.501 12.5685L20.4212 11.8121L19.0958 11.2242L19.2987 12.1752L20.1464 12.4496C20.2652 12.4881 20.3834 12.5277 20.501 12.5685ZM19.3425 12.3807L20.0901 12.6226C20.2349 12.6696 20.3789 12.7181 20.5222 12.7686L20.5898 13.4098C20.2298 13.2978 19.8656 13.1965 19.4974 13.1065L19.3425 12.3807ZM19.0982 12.1103L18.8896 11.1327L17.3401 10.4453C17.3867 10.6745 17.4469 10.9034 17.5213 11.1312L17.692 11.655L19.0982 12.1103ZM17.7617 11.8689L19.142 12.3157L19.3006 13.0594C19.1794 13.0312 19.0578 13.0041 18.9358 12.9783L18.0633 12.7935L17.7617 11.8689ZM17.4774 11.5855L17.3476 11.1874C17.2575 10.9112 17.1875 10.6332 17.1368 10.3551L15.6564 9.69831C15.6756 10.1544 15.7464 10.6128 15.8717 11.0657L17.4774 11.5855ZM15.9343 11.2773L17.5471 11.7994L17.8571 12.7498L16.4112 12.4436L16.1865 11.9405C16.0886 11.7218 16.0048 11.5003 15.9343 11.2773ZM15.6649 10.9988C15.5473 10.5401 15.4836 10.0766 15.4708 9.61597L15.124 9.46215C14.8053 9.32076 14.4809 9.20844 14.154 9.12404C14.1024 9.58177 14.1019 10.0467 14.1551 10.5099L15.6649 10.9988ZM14.1815 10.7098L15.7226 11.2087C15.8023 11.48 15.9011 11.7491 16.0196 12.0146L16.1905 12.3968L14.539 12.047C14.3669 11.6097 14.2484 11.1612 14.1815 10.7098ZM13.9648 10.4483C13.9184 9.99086 13.9226 9.53231 13.9752 9.0807C13.5814 8.99145 13.1846 8.9422 12.7899 8.931C12.6991 9.31831 12.6458 9.71384 12.631 10.1116C12.9823 10.1629 13.3342 10.2442 13.6833 10.3572L13.9648 10.4483ZM12.6269 10.295C12.9608 10.3449 13.2951 10.4228 13.6269 10.5302L13.9882 10.6472C14.0493 11.1039 14.1613 11.5582 14.3264 12.0021L12.7733 11.6731C12.6719 11.218 12.6236 10.7555 12.6269 10.295ZM12.4492 10.0878C12.4647 9.69742 12.5163 9.30922 12.6032 8.92853C12.2424 8.92923 11.8842 8.96157 11.5326 9.02405C11.4168 9.36261 11.3313 9.70959 11.2761 10.0607C11.663 10.0338 12.0554 10.042 12.4492 10.0878ZM11.2501 10.2451C11.6437 10.2151 12.0436 10.2227 12.4446 10.2705C12.4396 10.7251 12.4835 11.1816 12.5776 11.6317L12.2885 11.5704C11.9293 11.4943 11.5708 11.4502 11.2159 11.4359C11.1888 11.0386 11.2003 10.6397 11.2501 10.2451ZM11.089 10.0766C11.1402 9.73419 11.2196 9.3955 11.3268 9.0642C11.0055 9.13258 10.6902 9.22627 10.3843 9.34407C10.2507 9.6442 10.1425 9.95246 10.0597 10.2655C10.3953 10.1749 10.7395 10.1113 11.089 10.0766ZM10.0097 10.4684C10.3527 10.3698 10.7055 10.3003 11.0641 10.262C11.0177 10.6497 11.007 11.0412 11.0325 11.4311C10.6363 11.4265 10.2451 11.4592 9.86336 11.5263C9.88131 11.1713 9.93001 10.8172 10.0097 10.4684ZM9.85675 11.7124C9.84866 12.11 9.87906 12.5079 9.94761 12.9001C10.3022 12.8774 10.6634 12.8841 11.0287 12.9223L11.3221 12.953C11.1813 12.5153 11.0898 12.0658 11.047 11.6133C10.6433 11.6076 10.245 11.6416 9.85675 11.7124ZM11.231 11.6185C11.276 12.077 11.3726 12.5318 11.5212 12.9739L13.1001 13.1393C12.8894 12.715 12.7304 12.2748 12.6217 11.827L12.2506 11.7483C11.9093 11.6761 11.5685 11.6334 11.231 11.6185ZM12.8204 11.869C12.9345 12.311 13.0992 12.7449 13.3163 13.1619L14.9957 13.3377L14.7857 12.9754C14.6399 12.7238 14.5135 12.4664 14.4058 12.2048L12.8204 11.869ZM14.6235 12.251C14.717 12.4655 14.8237 12.677 14.9439 12.8845L15.2202 13.3612L16.6902 13.5152L16.2822 12.6023L14.6235 12.251ZM16.503 12.649L16.8998 13.5372L17.7872 13.63C17.9111 13.6431 18.0347 13.6573 18.158 13.6728L17.9222 12.9496L16.503 12.649ZM18.1285 12.9932L18.3585 13.699C18.7343 13.7502 19.1073 13.813 19.4772 13.887L19.3426 13.2562C19.195 13.2211 19.0467 13.1878 18.8979 13.1562L18.1285 12.9932ZM19.5395 13.3043L19.6724 13.9271C20.0076 13.9979 20.3401 14.078 20.6697 14.1671L20.6106 13.607C20.2576 13.4955 19.9006 13.3945 19.5395 13.3043ZM20.8006 13.6682L20.8587 14.2193C21.1572 14.3034 21.4531 14.395 21.7462 14.4938V14.0078C21.4347 13.8861 21.1194 13.7729 20.8006 13.6682ZM21.9288 14.0803V14.5565C24.1602 15.3355 26.2236 16.5394 28.0009 18.1043C26.2727 16.3687 24.2068 14.9986 21.9288 14.0803ZM27.3394 17.7831C25.7234 16.4688 23.8925 15.4427 21.9288 14.7494V15.1534C23.8606 15.7252 25.6899 16.6124 27.3394 17.7831ZM21.7462 15.1004V14.686C21.4599 14.5884 21.1709 14.4978 20.8794 14.4143L20.9293 14.8879C21.2034 14.9525 21.4757 15.0234 21.7462 15.1004ZM20.9496 15.0797C21.2169 15.1437 21.4824 15.2137 21.7462 15.2897V16.3627C21.7462 17.5946 21.337 18.7846 20.5939 19.7521C21.0443 18.8046 21.2305 17.7442 21.1187 16.6844L20.9496 15.0797ZM20.7411 14.8446L20.6901 14.3612C20.3676 14.2727 20.0421 14.1929 19.714 14.122L19.8296 14.6639C20.1353 14.7165 20.4392 14.7768 20.7411 14.8446ZM19.8705 14.8557C20.1692 14.9083 20.4662 14.9684 20.7613 15.0358L20.9372 16.7034C21.0664 17.9288 20.7843 19.155 20.1463 20.1948C20.4951 19.2055 20.5693 18.1313 20.3468 17.0887L19.8705 14.8557ZM19.6361 14.6317L19.5186 14.0809C19.1557 14.0068 18.7898 13.9435 18.4213 13.8914L18.6187 14.4969C18.9597 14.5324 19.2989 14.5774 19.6361 14.6317ZM18.6806 14.6864C19.0145 14.7227 19.3467 14.7682 19.6768 14.8227L20.1683 17.1265C20.4242 18.3263 20.2747 19.5694 19.755 20.6663C19.7534 20.668 19.7517 20.6699 19.7499 20.6716C19.9906 19.6542 19.9508 18.5817 19.6212 17.5711L18.6806 14.6864ZM18.4204 14.4773L18.2205 13.8641C18.0701 13.8446 17.9193 13.8268 17.7681 13.811L16.9857 13.7291L17.2886 14.407C17.6675 14.4188 18.0449 14.4423 18.4204 14.4773ZM17.371 14.5917C17.743 14.6051 18.1134 14.63 18.4819 14.666L19.4476 17.6274C19.8024 18.7153 19.8104 19.8775 19.484 20.958C19.4636 20.9803 19.4434 21.0027 19.4231 21.0253C19.5188 20.043 19.3604 19.0438 18.9505 18.1265L17.371 14.5917ZM17.0863 14.4018L16.776 13.7071L15.3329 13.556L15.8208 14.3979H16.7134C16.8379 14.3979 16.9622 14.3992 17.0863 14.4018ZM15.9262 14.5799H16.7134C16.8653 14.5799 17.017 14.5817 17.1685 14.5855L18.7838 18.2004C19.2167 19.1694 19.3599 20.2328 19.2101 21.2661C19.1768 21.3045 19.1436 21.3429 19.1107 21.3815C19.0713 20.4633 18.8114 19.5591 18.3418 18.7486L15.9262 14.5799ZM15.61 14.3979L15.1086 13.5325L13.4217 13.3559C13.5372 13.5595 13.6655 13.7589 13.8069 13.9526L14.1315 14.3979H15.61ZM14.2643 14.5799H15.7155L18.1836 18.8395C18.6731 19.6842 18.9271 20.6338 18.9333 21.5923C18.8903 21.6443 18.8475 21.6965 18.805 21.7488C18.6481 20.9195 18.3088 20.1266 17.8014 19.4308L14.2643 14.5799ZM13.9059 14.3979L13.6592 14.0596C13.4878 13.8245 13.3349 13.5816 13.2004 13.3326L11.5886 13.1639C11.7483 13.5915 11.9578 14.0058 12.2174 14.3979H13.9059ZM12.3425 14.5799H14.0385L17.6537 19.5377C18.1768 20.2552 18.5157 21.0793 18.653 21.9392C18.6021 22.0038 18.5516 22.0687 18.5016 22.1339C18.2512 21.4135 17.8574 20.743 17.3355 20.1654L12.7883 15.1333C12.6273 14.9552 12.4788 14.7704 12.3425 14.5799ZM12 14.3979C11.746 13.998 11.5416 13.5768 11.3865 13.1427L11.0096 13.1032C10.6624 13.0669 10.3191 13.0599 9.98188 13.0803C10.0747 13.5315 10.2184 13.9738 10.4126 14.3979H12ZM10.4996 14.5799H12.1199C12.2799 14.8134 12.4574 15.0391 12.6526 15.2551L17.1998 20.2872C17.7333 20.8775 18.1286 21.5683 18.3682 22.3101C18.3105 22.3873 18.2535 22.4649 18.1972 22.5429C17.8823 21.9465 17.4618 21.4042 16.9496 20.9446L11.8993 16.4137C11.3032 15.8789 10.836 15.2547 10.4996 14.5799ZM18.2899 22.7263C18.2986 22.7445 18.3073 22.7627 18.3158 22.7809C18.3587 22.711 18.402 22.6413 18.4457 22.5719C18.4418 22.5572 18.4377 22.5426 18.4337 22.528C18.3852 22.5938 18.3374 22.6599 18.2899 22.7263ZM18.5704 22.3447C18.5726 22.352 18.5748 22.3594 18.5771 22.3667C18.6137 22.3102 18.6508 22.2539 18.6881 22.1977C18.6879 22.1957 18.6877 22.1936 18.6874 22.1915C18.6481 22.2423 18.6091 22.2935 18.5704 22.3447ZM18.5064 22.8192C18.4727 22.8738 18.4394 22.9285 18.4063 22.9834C18.4093 22.9904 18.4123 22.9974 18.4152 23.0044C18.4457 22.9446 18.4766 22.8848 18.5077 22.8253C18.5073 22.8232 18.5069 22.8213 18.5064 22.8192ZM18.4597 25.4103C18.4512 25.474 18.4431 25.5378 18.4352 25.6014C18.4407 25.6065 18.4462 25.6116 18.4516 25.6168C18.455 25.5495 18.4589 25.4822 18.4631 25.4149C18.4619 25.4134 18.4608 25.4119 18.4597 25.4103ZM18.4409 25.8599C18.4303 25.8493 18.4196 25.8387 18.4088 25.8282C18.3999 25.9093 18.3915 25.9905 18.3838 26.0716C18.4003 26.0829 18.4168 26.0943 18.4333 26.1057C18.4353 26.0237 18.4377 25.9418 18.4409 25.8599ZM18.6132 26.2359C18.6143 26.1719 18.6158 26.1079 18.6176 26.0438L18.6214 26.0479C18.6242 26.1151 18.6275 26.1823 18.6311 26.2494C18.6252 26.2449 18.6192 26.2404 18.6132 26.2359ZM18.4293 26.3263C18.408 26.3109 18.3865 26.2955 18.3649 26.2802C18.3566 26.3781 18.3493 26.4759 18.3426 26.5738C18.3712 26.5873 18.3998 26.601 18.4282 26.615C18.4278 26.5188 18.4282 26.4226 18.4293 26.3263ZM18.6114 26.7091C18.6106 26.6275 18.6104 26.5459 18.6108 26.4642C18.6226 26.4735 18.6343 26.4829 18.646 26.4923C18.6515 26.5742 18.6576 26.656 18.6642 26.7378C18.6467 26.7281 18.6291 26.7186 18.6114 26.7091ZM18.4302 26.8197C18.397 26.8027 18.3638 26.7861 18.3303 26.7698C18.3238 26.8847 18.3183 26.9996 18.314 27.1145C18.3556 27.1265 18.3969 27.1388 18.4382 27.1517C18.4345 27.041 18.4318 26.9304 18.4302 26.8197ZM18.6231 27.2127C18.6194 27.1147 18.6166 27.0166 18.6145 26.9184C18.6376 26.9313 18.6605 26.9444 18.6834 26.9576C18.6924 27.0534 18.7021 27.1492 18.7125 27.2447C18.6828 27.2338 18.653 27.2232 18.6231 27.2127ZM18.4457 27.345C18.4 27.3302 18.3541 27.3159 18.3079 27.3023C18.2174 30.6127 19.0416 33.9134 20.7306 36.8283L23.5637 41.7177C23.9796 42.4354 24.5186 43.0382 25.1389 43.5146C25.4409 43.2546 25.7173 42.9659 25.9638 42.6528C25.7095 42.4055 25.4726 42.1333 25.2566 41.8371L21.9261 37.2696C19.7984 34.3516 18.6026 30.8953 18.4457 27.345ZM26.0753 42.5069C25.8342 42.2708 25.6095 42.0117 25.4043 41.7302L22.0738 37.1627C19.9817 34.2936 18.7996 30.8985 18.6314 27.4089C18.6664 27.4216 18.7012 27.4346 18.7359 27.4481C19.1841 31.1554 20.7676 34.6644 23.3091 37.4769L26.7699 41.3066C26.5834 41.7341 26.3497 42.1365 26.0753 42.5069ZM26.0969 42.7786C25.854 43.0852 25.5834 43.369 25.2886 43.626C25.5808 43.8366 25.8896 44.0202 26.2108 44.1755C26.5042 43.9695 26.7781 43.739 27.0297 43.4872C26.701 43.2826 26.3883 43.0461 26.0969 42.7786ZM27.1596 43.3533C26.8236 43.1471 26.5047 42.9069 26.2084 42.6335C26.4807 42.2688 26.7143 41.8739 26.9038 41.4549L27.1004 41.6725C27.3464 41.9447 27.6107 42.1907 27.8898 42.4104C27.6773 42.7474 27.4327 43.0633 27.1596 43.3533ZM27.1905 43.584C26.9471 43.8309 26.6831 44.0583 26.4009 44.2635C26.7013 44.3965 27.0115 44.5052 27.3284 44.5891C27.6136 44.4246 27.883 44.2386 28.1348 44.0337C27.8098 43.9106 27.4938 43.7604 27.1905 43.584ZM28.2949 43.8989C27.9592 43.7779 27.6329 43.6275 27.3202 43.4485C27.5864 43.1622 27.8259 42.8518 28.0353 42.5215C28.3531 42.7571 28.6888 42.9597 29.0373 43.129C28.8133 43.4056 28.5651 43.6634 28.2949 43.8989ZM29.1523 42.9823C29.3935 42.6654 29.6037 42.3257 29.7796 41.9684C29.479 41.779 29.1904 41.5619 28.9173 41.3168L28.6989 41.1209C28.5545 41.5574 28.3635 41.9745 28.1309 42.3656C28.4542 42.6067 28.7965 42.8123 29.1523 42.9823ZM27.9852 42.2536C28.2193 41.8565 28.4096 41.432 28.5501 40.9875L27.3706 39.9292C27.2908 40.3959 27.1596 40.8452 26.9833 41.271L27.2361 41.5508C27.4699 41.8095 27.7207 42.0438 27.9852 42.2536ZM26.8474 41.1206C27.016 40.6963 27.1386 40.2488 27.2091 39.7844L24.7065 37.539C21.7596 34.8952 19.7717 31.3877 19.0026 27.559C18.9784 27.5482 18.9541 27.5375 18.9297 27.527C19.3897 31.1603 20.9516 34.5962 23.4447 37.3552L26.8474 41.1206ZM18.9046 27.3193C18.9232 27.3268 18.9419 27.3345 18.9604 27.3424C18.9452 27.2617 18.9306 27.181 18.9165 27.1002C18.9038 27.092 18.8911 27.0839 18.8783 27.0757C18.8865 27.157 18.8953 27.2381 18.9046 27.3193ZM18.8568 26.8485C18.8633 26.8524 18.8698 26.8563 18.8763 26.8602C18.8657 26.7939 18.8554 26.7274 18.8455 26.6608C18.8455 26.6608 18.8424 26.6581 18.8409 26.6568C18.8458 26.7207 18.8512 26.7846 18.8568 26.8485ZM19.1277 27.2434C19.1393 27.3065 19.1513 27.3695 19.1636 27.4324C19.1706 27.4356 19.1776 27.439 19.1845 27.4422C19.1669 27.3773 19.1497 27.3123 19.1329 27.2472C19.1312 27.246 19.1294 27.2447 19.1277 27.2434ZM19.2496 27.6766C19.2361 27.6698 19.2225 27.6629 19.2088 27.6561C19.9892 31.3949 21.9453 34.8171 24.8286 37.4039L27.2383 39.5657C27.2651 39.3329 27.2789 39.0961 27.2789 38.8561V38.3066L26.1029 37.4554C22.7672 35.0405 20.3646 31.5888 19.2496 27.6766ZM27.2789 38.0817L26.2103 37.3082C22.9562 34.9524 20.5991 31.6002 19.4747 27.7971C19.4765 27.7982 19.4784 27.7993 19.4803 27.8003C20.9338 31.6833 23.6783 34.9739 27.2789 37.1074V38.0817ZM27.4614 38.4388V38.8561C27.4614 39.1471 27.4418 39.4335 27.4036 39.7141L28.6078 40.7943C28.7309 40.3548 28.8059 39.8969 28.8273 39.4276L27.4614 38.4388ZM28.8334 39.2071L27.4614 38.2139V37.2142C27.4686 37.2183 27.4759 37.2225 27.4831 37.2267L28.7417 37.9507L28.7993 38.4974C28.8244 38.7359 28.8357 38.9728 28.8334 39.2071ZM29.0032 39.5548C28.9727 40.0273 28.8894 40.4878 28.7587 40.9298L29.0394 41.1817C29.299 41.4145 29.573 41.6215 29.8581 41.8026C30.0493 41.3833 30.1939 40.9413 30.2871 40.4844L29.0032 39.5548ZM30.3241 40.2863L29.0134 39.3375C29.0219 39.0545 29.0114 38.7676 28.9809 38.4783L28.9371 38.0631L30.399 38.9041C30.4269 39.3731 30.4004 39.8363 30.3241 40.2863ZM30.3819 38.6842C30.3596 38.451 30.3236 38.2167 30.2736 37.9822L30.1588 37.4444L28.8312 36.8554C28.8237 36.8521 28.8162 36.8487 28.8086 36.8454L28.9135 37.8395L30.3819 38.6842ZM28.7181 37.727L28.6158 36.7582C28.2231 36.5779 27.8381 36.3844 27.4614 36.1782V37.0036C27.499 37.0255 27.5366 37.0474 27.5743 37.0691L28.7181 37.727ZM27.2789 36.8954V36.0769C24.0739 34.2747 21.4864 31.5505 19.8572 28.2616C21.3277 31.8442 23.9228 34.8795 27.2789 36.8954ZM20.3084 28.7368C21.9141 31.714 24.3289 34.1868 27.2789 35.8677V35.1477C24.4383 33.6617 22.0305 31.453 20.3084 28.7368ZM27.4614 35.2418V35.9703C27.8308 36.1752 28.2084 36.3677 28.5936 36.5474L28.5078 35.7335C28.1532 35.5802 27.8042 35.4163 27.4614 35.2418ZM28.4859 35.5254C28.1386 35.3731 27.7971 35.2103 27.4614 35.0373V34.4015C27.7734 34.5461 28.0897 34.682 28.4102 34.809L28.4859 35.5254ZM28.7 35.8152L28.7866 36.636C28.8261 36.6539 28.8657 36.6716 28.9055 36.6892L30.112 37.2245L29.9087 36.2716C29.4993 36.1332 29.0962 35.9809 28.7 35.8152ZM29.8645 36.0643C29.4626 35.9258 29.067 35.7736 28.6782 35.6084L28.6017 34.8837C28.9608 35.0215 29.325 35.1482 29.6936 35.2635L29.8645 36.0643ZM29.65 35.0589L29.4998 34.3544C29.1678 34.2614 28.8389 34.1593 28.5136 34.0481L28.5802 34.6803C28.9321 34.8173 29.2888 34.9436 29.65 35.0589ZM28.3887 34.6044L28.3229 33.9818C28.0328 33.879 27.7456 33.7691 27.4614 33.652V34.2007C27.7663 34.3437 28.0755 34.4783 28.3887 34.6044ZM27.2789 34.1139V33.5757C25.0609 32.6344 23.0394 31.261 21.34 29.5235C22.9806 31.4556 25.0062 33.0171 27.2789 34.1139ZM21.9129 29.8335C23.4809 31.33 25.3001 32.5279 27.2789 33.3778V33.2104C27.2789 33.1143 27.2813 33.0185 27.286 32.923C25.3424 32.2089 23.5233 31.1675 21.9129 29.8335ZM27.4659 32.988C27.4629 33.0619 27.4614 33.1361 27.4614 33.2104V33.455C27.7386 33.5705 28.0188 33.6792 28.3018 33.7809L28.2454 33.2457C27.9836 33.1656 27.7236 33.0796 27.4659 32.988ZM28.2246 33.0489C27.9734 32.9708 27.724 32.8873 27.4767 32.7986C27.5688 31.5584 28.0748 30.3825 28.916 29.4602C28.3335 30.4933 28.0811 31.6883 28.207 32.8825L28.2246 33.0489ZM28.4349 33.3026L28.4925 33.8483C28.8106 33.9587 29.1322 34.0604 29.4568 34.1532L29.3261 33.5407C29.0269 33.4687 28.7297 33.3893 28.4349 33.3026ZM29.2841 33.3433C28.992 33.2715 28.7019 33.1926 28.4143 33.1067L28.3886 32.8634C28.2428 31.4814 28.6203 30.0984 29.4414 28.9829C28.9706 30.0709 28.845 31.2854 29.0956 32.4598L29.2841 33.3433ZM29.4807 33.3904C29.8086 33.467 30.1389 33.5346 30.4714 33.593L29.9346 31.9468C29.5624 30.8054 29.5597 29.5849 29.9135 28.4541C29.2145 29.6487 28.9843 31.0631 29.2741 32.4219L29.4807 33.3904ZM29.3328 19.673C27.231 17.6433 24.6863 16.1685 21.9288 15.3433V16.3627C21.9288 17.89 21.3198 19.3546 20.236 20.4345C20.21 20.4604 20.1841 20.4864 20.1582 20.5125C20.0658 20.6487 19.9672 20.7814 19.8625 20.9102C19.8392 20.9389 19.816 20.9676 19.7929 20.9964C19.7153 21.1413 19.6313 21.2833 19.5408 21.4221C19.5204 21.4536 19.5 21.4849 19.4798 21.5164C19.4179 21.6682 19.3494 21.8178 19.2742 21.9648C19.2574 21.9977 19.2407 22.0305 19.2241 22.0635C19.1784 22.2214 19.1258 22.3777 19.0664 22.5322C19.0531 22.5668 19.0398 22.6012 19.0267 22.6358C18.9979 22.7975 18.9621 22.9584 18.9191 23.1182C18.9094 23.1542 18.8998 23.1903 18.8904 23.2263C18.8787 23.3897 18.8599 23.5532 18.834 23.7163C18.8281 23.753 18.8223 23.7899 18.8167 23.8267C18.8222 23.9905 18.8207 24.155 18.812 24.3198C18.8101 24.3566 18.8083 24.3933 18.8065 24.43C18.8292 24.5928 18.8451 24.7571 18.8538 24.9225C18.8557 24.9588 18.8577 24.9951 18.8598 25.0313C18.8996 25.1913 18.9328 25.3534 18.9588 25.5175C18.9645 25.5533 18.9703 25.5892 18.9762 25.625C19.0326 25.7799 19.0825 25.9378 19.1256 26.0982C19.1353 26.1338 19.1449 26.1695 19.1547 26.2051C19.2268 26.3527 19.2927 26.5039 19.3522 26.6584C19.3656 26.6933 19.3792 26.7281 19.3928 26.7628C19.4796 26.9018 19.5608 27.045 19.6359 27.1919C19.6526 27.2245 19.6693 27.257 19.6862 27.2895C19.7877 27.4193 19.8839 27.5539 19.9746 27.693C19.9946 27.7236 20.0148 27.7543 20.0349 27.7849C20.1495 27.9034 20.2593 28.0271 20.364 28.1559C20.387 28.1843 20.4101 28.2125 20.4333 28.2408C20.5598 28.3467 20.6821 28.4585 20.7999 28.5759C22.6592 30.4285 24.8808 31.8372 27.2987 32.7337C27.4114 31.381 28.0011 30.1056 28.9715 29.1385C29.201 28.91 29.4237 28.6759 29.6394 28.4367C29.7808 28.2569 29.9186 28.0748 30.0527 27.8905C30.1741 27.6978 30.2917 27.503 30.4053 27.3065C30.5072 27.0997 30.6048 26.8914 30.6983 26.6816C30.7772 26.4668 30.852 26.2508 30.9224 26.0339C30.9783 25.8127 31.0298 25.5909 31.077 25.3685C31.1095 25.1418 31.1377 24.9149 31.1613 24.688C31.1699 24.4577 31.174 24.2277 31.1738 23.9981C31.1582 23.7685 31.1381 23.5396 31.1138 23.3115C31.0742 23.0858 31.0305 22.8614 30.9826 22.6382C30.9201 22.4195 30.8535 22.2025 30.783 21.9871C30.6979 21.7757 30.6088 21.5664 30.516 21.3592C30.4075 21.1547 30.2952 20.9526 30.1792 20.753C30.0512 20.5632 29.9198 20.376 29.7851 20.1917C29.6373 20.0157 29.4866 19.8427 29.3328 19.673ZM20.8014 29.1543C22.4593 31.5817 24.6845 33.5673 27.2789 34.9418V34.3158C24.7626 33.1164 22.5428 31.3544 20.8014 29.1543ZM28.6239 18.4915C26.8373 16.2753 24.5449 14.5032 21.9288 13.3301V13.8841C24.4781 14.9 26.7671 16.475 28.6239 18.4915ZM28.3339 44.1054C28.6288 44.2062 28.9304 44.2851 29.2361 44.3418C28.9909 44.5044 28.7317 44.6508 28.4597 44.779C28.1637 44.7571 27.87 44.714 27.5812 44.6503C27.8467 44.4864 28.0981 44.3041 28.3339 44.1054ZM9.85629 10.3241C9.55827 10.4153 9.26771 10.5281 8.98696 10.6611C9.08943 10.3861 9.2127 10.116 9.35712 9.85293C9.60953 9.69732 9.87251 9.56025 10.1438 9.44255C10.0256 9.73067 9.92986 10.0253 9.85629 10.3241ZM44.7857 30.9005C44.7186 31.0151 44.6482 31.1272 44.5743 31.237C44.5623 31.37 44.5461 31.5033 44.5255 31.6368C44.627 31.3993 44.7141 31.1535 44.7857 30.9005ZM44.2022 32.2842C44.2311 32.177 44.2574 32.0685 44.2808 31.9587C44.3104 31.8201 44.335 31.6815 44.3548 31.5432C44.1978 31.7492 44.0284 31.9453 43.8477 32.1304C43.8448 32.3882 43.8262 32.6476 43.7909 32.9074C43.9399 32.709 44.0774 32.5009 44.2022 32.2842ZM43.5588 33.1977C43.6146 32.903 43.648 32.608 43.6602 32.3147C43.4345 32.5276 43.1932 32.7242 42.9381 32.9027C42.9608 33.2095 42.9611 33.5194 42.9381 33.8298C43.1595 33.6345 43.367 33.4233 43.5588 33.1977ZM42.9133 34.0909C43.1122 33.9257 43.3011 33.7485 43.4786 33.5602C43.4444 33.6957 43.4054 33.831 43.3614 33.9659C43.3265 34.0727 43.2891 34.178 43.2491 34.2816C43.1025 34.4837 42.9442 34.676 42.7754 34.8575C42.8377 34.6029 42.8835 34.3469 42.9133 34.0909ZM42.7399 33.9975C42.7739 33.6709 42.7812 33.3444 42.7629 33.0211C42.4718 33.2106 42.1642 33.377 41.8426 33.5177C41.9 33.8591 41.9296 34.2057 41.9304 34.5538C42.2149 34.3899 42.4856 34.2037 42.7399 33.9975ZM41.9273 34.7646C42.1999 34.6137 42.4607 34.4431 42.7076 34.2548C42.6647 34.545 42.6005 34.8349 42.5142 35.1222C42.2997 35.3267 42.071 35.5153 41.8301 35.6867C41.8856 35.3803 41.9177 35.0722 41.9273 34.7646ZM41.7472 34.6553C41.7523 34.2977 41.7261 33.9414 41.6696 33.5904C41.31 33.7352 40.9342 33.8481 40.5455 33.9258C40.6518 34.302 40.7232 34.6871 40.7587 35.0758C41.1015 34.9641 41.4321 34.823 41.7472 34.6553ZM40.7729 35.2625C41.1076 35.156 41.4312 35.0224 41.7406 34.8642C41.7249 35.1876 41.6834 35.5116 41.6154 35.8329C41.3407 36.0116 41.0518 36.1685 40.7515 36.302C40.7873 35.9557 40.7943 35.608 40.7729 35.2625ZM40.5802 35.131C40.5466 34.7347 40.4747 34.342 40.3653 33.9591C40.0151 34.0187 39.6552 34.0497 39.2881 34.0497H38.9926C39.1785 34.4705 39.3167 34.9079 39.4067 35.3536C39.8089 35.3171 40.2015 35.2418 40.5802 35.131ZM39.4402 35.5331C39.8349 35.4964 40.2205 35.4232 40.5932 35.3166C40.6126 35.6715 40.6013 36.0287 40.5587 36.3839C40.2278 36.5178 39.8842 36.6237 39.5315 36.699C39.537 36.3087 39.5065 35.9183 39.4402 35.5331ZM39.2232 35.3674C39.1304 34.9162 38.9867 34.4739 38.7924 34.0497H37.2052C37.4593 34.4497 37.6636 34.8709 37.8186 35.305L38.1958 35.3445C38.5427 35.3808 38.886 35.3878 39.2232 35.3674ZM37.8829 35.4946L38.1767 35.5254C38.5418 35.5636 38.903 35.5703 39.2574 35.5475C39.326 35.9398 39.3563 36.3377 39.3483 36.7354C38.96 36.8061 38.5618 36.8401 38.158 36.8344C38.1153 36.3818 38.0238 35.9324 37.8829 35.4946ZM37.6166 35.2838C37.4568 34.8561 37.2474 34.4419 36.9878 34.0497H35.2998L35.5465 34.388C35.718 34.6231 35.8708 34.866 36.0054 35.115L37.6166 35.2838ZM36.1056 35.3085L37.6839 35.4738C37.8326 35.9159 37.9291 36.3707 37.9741 36.8291C37.6367 36.8142 37.2959 36.7716 36.9546 36.6993L36.584 36.6209C36.4754 36.173 36.3164 35.7328 36.1056 35.3085ZM35.784 35.0919C35.6685 34.8882 35.5401 34.6888 35.3988 34.4949L35.0741 34.0497H33.6219C33.6134 34.0497 33.6049 34.0497 33.5964 34.0496L34.098 34.9153L35.784 35.0919ZM34.2108 35.11L35.8894 35.2859C36.1065 35.7029 36.2713 36.1368 36.3853 36.5788L34.8007 36.2431C34.6931 35.9814 34.5664 35.7239 34.4205 35.472L34.2108 35.11ZM33.8735 34.8918L33.3847 34.0482C32.9523 34.0426 32.5217 34.0218 32.0936 33.9861L32.4305 34.7402C32.4738 34.7451 32.5172 34.7498 32.5606 34.7544L33.8735 34.8918ZM32.5165 34.9326C32.5249 34.9335 32.5332 34.9344 32.5416 34.9353L33.9864 35.0865L34.2624 35.563C34.3828 35.7706 34.4895 35.9823 34.583 36.197L32.9245 35.8457L32.5165 34.9326ZM33.0163 36.0511L33.1869 36.433C33.3056 36.6986 33.4045 36.9679 33.4841 37.2395L35.025 37.7384C34.958 37.2869 34.8396 36.8382 34.6675 36.4009L33.0163 36.0511ZM34.8801 36.4459C35.0452 36.8899 35.1572 37.3442 35.2182 37.801L35.578 37.9175C35.9101 38.0249 36.2445 38.1029 36.5787 38.1528C36.5821 37.6922 36.5339 37.2298 36.4324 36.7747L34.8801 36.4459ZM36.6282 36.8161C36.7222 37.2662 36.7661 37.7226 36.7611 38.1772C37.162 38.2249 37.5615 38.2325 37.955 38.2025C38.0047 37.8079 38.0162 37.409 37.9893 37.0118C37.6343 36.9975 37.2757 36.9533 36.9166 36.8772L36.6282 36.8161ZM38.1726 37.0166C38.198 37.4065 38.1874 37.7979 38.141 38.1856C38.4996 38.1473 38.8523 38.0778 39.1954 37.9792C39.275 37.6303 39.3237 37.2763 39.3417 36.9214C38.9599 36.9885 38.5689 37.0211 38.1726 37.0166ZM39.5261 36.8861C39.5111 37.232 39.4676 37.5771 39.3958 37.9179C39.7084 37.8164 40.0121 37.6903 40.304 37.5412C40.4054 37.2288 40.4807 36.9109 40.5303 36.5909C40.2059 36.716 39.8701 36.8151 39.5261 36.8861ZM40.7263 36.5114C40.6846 36.8162 40.6202 37.1194 40.533 37.4183C40.7906 37.2728 41.038 37.1089 41.273 36.9277C41.389 36.651 41.4832 36.3695 41.5562 36.0853C41.2908 36.2471 41.0134 36.3896 40.7263 36.5114ZM41.778 35.9438C41.7216 36.1952 41.6492 36.445 41.5605 36.6917C41.7478 36.5283 41.9258 36.3531 42.0931 36.1669C42.1434 36.0686 42.1915 35.9684 42.2371 35.8663C42.2951 35.7365 42.3482 35.6058 42.3965 35.4744C42.2 35.6433 41.9934 35.8001 41.778 35.9438ZM42.675 35.2202C42.6357 35.3476 42.5921 35.4743 42.5443 35.6003C42.6927 35.3894 42.8289 35.1676 42.9513 34.9356C42.8621 35.0335 42.77 35.1285 42.675 35.2202ZM41.7285 36.7866C41.6292 36.875 41.5271 36.9602 41.4227 37.042C41.37 37.1649 41.3132 37.2869 41.2521 37.4078C41.4226 37.2127 41.5819 37.0055 41.7285 36.7866ZM40.7438 37.924C40.8045 37.8313 40.863 37.7362 40.9192 37.6392C40.9906 37.5161 41.0572 37.3915 41.119 37.2657C40.9057 37.4135 40.6836 37.5479 40.4542 37.6684C40.3715 37.913 40.2732 38.1541 40.159 38.3904C40.3625 38.2475 40.5578 38.0918 40.7438 37.924ZM39.8482 38.5951C39.9928 38.3318 40.1162 38.0615 40.2188 37.7861C39.9378 37.9193 39.647 38.0322 39.3488 38.1235C39.2751 38.4223 39.1793 38.7173 39.0611 39.0056C39.3325 38.8878 39.5956 38.7507 39.8482 38.5951ZM38.9565 39.2462C39.1972 39.1503 39.4321 39.0398 39.6596 38.9152C39.585 39.0336 39.506 39.1503 39.4222 39.2651C39.356 39.356 39.2876 39.4445 39.2173 39.5308C39.0149 39.6782 38.8044 39.8125 38.5871 39.9334C38.7256 39.7102 38.8487 39.4807 38.9565 39.2462ZM38.8205 39.104C38.9543 38.8037 39.0625 38.4953 39.1454 38.182C38.8097 38.2727 38.4655 38.3362 38.116 38.3711C38.0647 38.7135 37.9854 39.0523 37.8781 39.3837C38.1995 39.3153 38.5147 39.2218 38.8205 39.104ZM37.8098 39.5834C38.1158 39.5237 38.4167 39.4418 38.7099 39.3386C38.5791 39.6017 38.4281 39.8577 38.2566 40.1045C37.9893 40.2328 37.7133 40.3418 37.4312 40.4305C37.5789 40.1561 37.7052 39.8729 37.8098 39.5834ZM37.6723 39.4238C37.7883 39.0851 37.8738 38.7382 37.9289 38.3869C37.5423 38.4139 37.15 38.4056 36.7565 38.3598C36.7409 38.7503 36.6893 39.1385 36.6025 39.5192C36.963 39.5185 37.321 39.4862 37.6723 39.4238ZM36.5582 39.7011C36.9092 39.7029 37.2581 39.6755 37.6014 39.6204C37.486 39.9233 37.346 40.2187 37.1816 40.5034C36.8652 40.5885 36.542 40.6489 36.2153 40.6832C36.3568 40.3649 36.4712 40.0363 36.5582 39.7011ZM36.4157 39.5167C36.5065 39.1294 36.5599 38.7339 36.5747 38.336C36.223 38.2849 35.8709 38.2035 35.5216 38.0905L35.2415 37.9997C35.288 38.4571 35.2837 38.9157 35.231 39.3672C35.6247 39.4563 36.0213 39.5055 36.4157 39.5167ZM35.2072 39.5483C35.5938 39.6348 35.983 39.6839 36.3704 39.6974C36.2787 40.0408 36.1572 40.3771 36.0065 40.7018C35.6504 40.7272 35.2911 40.722 34.9325 40.6852C35.0587 40.3157 35.1508 39.935 35.2072 39.5483ZM35.0522 39.3239C35.1039 38.8662 35.1044 38.4013 35.0513 37.9381L33.5418 37.4495C33.6594 37.9081 33.723 38.3716 33.7359 38.8321L34.0817 38.9856C34.4007 39.1271 34.7251 39.2394 35.0522 39.3239ZM33.7382 39.0323L34.0075 39.1517C34.3431 39.3006 34.6846 39.4182 35.0289 39.5058C34.9725 39.8999 34.878 40.2876 34.7469 40.6634C34.3558 40.611 33.9664 40.5208 33.5843 40.3911C33.6841 39.9476 33.7364 39.492 33.7382 39.0323ZM33.5416 40.5688C33.4449 40.9475 33.3134 41.3165 33.149 41.671C33.5019 41.7449 33.8589 41.7874 34.2157 41.7992C34.3997 41.492 34.5558 41.1703 34.6829 40.8382C34.2991 40.7845 33.9171 40.6951 33.5416 40.5688ZM34.8693 40.8615C34.7477 41.1858 34.5994 41.5007 34.4254 41.8025C34.7539 41.8022 35.0816 41.776 35.4052 41.7242C35.5987 41.4582 35.7689 41.179 35.9153 40.8898C35.5681 40.9089 35.2182 40.8998 34.8693 40.8615ZM36.1265 40.8746C35.9921 41.1518 35.8368 41.4202 35.6611 41.6776C35.951 41.6187 36.2367 41.5392 36.516 41.4394C36.7123 41.2119 36.8893 40.9731 37.047 40.7252C36.7447 40.7972 36.4369 40.8472 36.1265 40.8746ZM37.3019 40.6589C37.1701 40.8808 37.0237 41.0962 36.8627 41.3036C37.0913 41.206 37.3146 41.0945 37.5313 40.969C37.6102 40.8906 37.6875 40.8096 37.763 40.726C37.8582 40.6207 37.949 40.5131 38.0355 40.4032C37.7962 40.5033 37.5511 40.5886 37.3019 40.6589ZM38.3792 40.2473C38.3021 40.3566 38.2211 40.464 38.1362 40.5695C38.3434 40.4142 38.5423 40.2447 38.7314 40.0611C38.6159 40.1269 38.4984 40.189 38.3792 40.2473ZM36.9924 41.4459C36.8706 41.4992 36.7474 41.5487 36.6229 41.5943C36.5349 41.6948 36.443 41.7931 36.3476 41.8891C36.5699 41.7563 36.7853 41.6086 36.9924 41.4459ZM35.7041 42.2235C35.7907 42.1538 35.876 42.0814 35.9596 42.0063C36.0654 41.9114 36.1672 41.8137 36.2648 41.7135C36.0164 41.788 35.7638 41.8474 35.5086 41.8914C35.3543 42.0983 35.1862 42.2971 35.0044 42.4866C35.2418 42.4134 35.4755 42.3257 35.7041 42.2235ZM34.6454 42.5856C34.8643 42.3799 35.0654 42.1609 35.2481 41.9307C34.9399 41.9709 34.6286 41.9886 34.3168 41.9836C34.1542 42.2452 33.9716 42.496 33.7699 42.7337C34.0643 42.7052 34.357 42.6558 34.6454 42.5856ZM33.5958 42.9303C33.8542 42.9132 34.1117 42.8804 34.3668 42.8321C34.259 42.9217 34.1475 43.0084 34.0323 43.0918C33.9413 43.1577 33.8491 43.2207 33.7559 43.2808C33.5177 43.3587 33.2759 43.4217 33.032 43.4698C33.2325 43.3003 33.4206 43.1201 33.5958 42.9303ZM33.5105 42.7533C33.7308 42.509 33.9293 42.2491 34.1052 41.9767C33.7579 41.9596 33.4109 41.9141 33.0677 41.8396C32.9128 42.1495 32.7323 42.4472 32.5275 42.7293C32.8544 42.7632 33.1832 42.7711 33.5105 42.7533ZM32.4006 42.8981C32.7102 42.9355 33.0217 42.9503 33.3326 42.9424C33.1267 43.1522 32.9038 43.3491 32.6644 43.5309C32.3702 43.5708 32.0739 43.5894 31.778 43.587C32.0036 43.3716 32.2114 43.1412 32.4006 42.8981ZM31.5842 43.7644C31.39 43.935 31.1841 44.0947 30.9667 44.2424C31.2143 44.22 31.4614 44.1825 31.7065 44.1299C31.8057 44.0797 31.904 44.0266 32.0015 43.9705C32.1249 43.8995 32.2449 43.825 32.3615 43.747C32.1027 43.7686 31.8432 43.7743 31.5842 43.7644ZM32.7367 43.7045C32.6296 43.7846 32.5193 43.8618 32.4058 43.936C32.651 43.8521 32.8925 43.7521 33.1291 43.6358C32.9989 43.6629 32.868 43.6857 32.7367 43.7045ZM31.0459 44.4175C30.9135 44.4309 30.781 44.4401 30.6484 44.4451C30.5335 44.5135 30.4157 44.5788 30.2952 44.6407C30.5478 44.5828 30.7985 44.5085 31.0459 44.4175ZM34.431 43.0151C34.5359 42.9296 34.6374 42.8415 34.7354 42.7508C34.8639 42.7184 34.9915 42.6821 35.1181 42.6417C34.8953 42.7818 34.6657 42.9063 34.431 43.0151ZM39.7769 39.0704C39.8505 38.9566 39.9199 38.8412 39.9852 38.7244C40.0976 38.6539 40.208 38.5799 40.3162 38.5023C40.1473 38.7048 39.9671 38.8942 39.7769 39.0704ZM43.6385 33.6714C43.673 33.5406 43.7032 33.4097 43.729 33.2786C43.8141 33.177 43.8961 33.0727 43.9747 32.9657C43.877 33.21 43.7644 33.4455 43.6385 33.6714ZM24.4681 45.413C24.3381 45.3849 24.2092 45.3528 24.0816 45.3167C23.9511 45.3465 23.8188 45.3722 23.685 45.394C23.9431 45.4167 24.2046 45.4234 24.4681 45.413ZM22.9671 45.2877C23.0782 45.282 23.1899 45.2734 23.3019 45.2617C23.4434 45.2469 23.5833 45.2274 23.7214 45.2034C23.4763 45.1182 23.2368 45.0183 23.0043 44.9044C22.7574 44.9814 22.5041 45.0438 22.2453 45.0906C22.4808 45.1705 22.7217 45.2365 22.9671 45.2877ZM21.8964 44.9603C22.195 44.9222 22.4868 44.8628 22.7704 44.7837C21.3914 44.0361 20.286 42.7814 19.7626 41.1763L18.0117 35.8069C17.0885 32.9759 16.8827 29.9916 17.3741 27.1101C17.2853 27.0996 17.1961 27.0912 17.1068 27.0849C16.4912 29.6658 16.4475 32.3748 17.0116 35.019L18.1897 40.5415C18.6312 42.6112 20.069 44.215 21.8964 44.9603ZM16.9215 27.075C16.307 29.6721 16.2656 32.397 16.8331 35.0569L18.0111 40.5793C18.4411 42.5949 19.7888 44.1813 21.5257 44.9966C21.3857 45.006 21.2444 45.0108 21.1019 45.0108C20.9894 45.0108 20.8776 45.0078 20.7665 45.0019C18.5092 44.278 16.7769 42.285 16.5131 39.784L15.9208 34.1691C15.6666 31.7589 15.9036 29.3477 16.5915 27.0711H16.7134C16.7829 27.0711 16.8522 27.0725 16.9215 27.075ZM17.1504 26.9058C17.2358 26.9121 17.3209 26.9205 17.4056 26.9306C17.435 26.7682 17.4666 26.6061 17.5004 26.4444C17.4303 26.4231 17.3597 26.4032 17.2887 26.3847C17.24 26.5577 17.1939 26.7314 17.1504 26.9058ZM17.1112 26.3416C17.0596 26.5252 17.0109 26.7097 16.9651 26.8947C16.8814 26.8911 16.7975 26.8892 16.7134 26.8892H16.6476C16.7108 26.6879 16.7774 26.4877 16.8477 26.2886C16.9361 26.3042 17.024 26.3218 17.1112 26.3416ZM17.3388 26.2098C17.4058 26.2273 17.4724 26.246 17.5387 26.2658C17.5695 26.125 17.6022 25.9845 17.6365 25.8443C17.583 25.8175 17.529 25.7917 17.4746 25.7666C17.4274 25.9138 17.3822 26.0616 17.3388 26.2098ZM17.3067 25.6926C17.256 25.85 17.2077 26.0079 17.1613 26.1664C17.0781 26.1475 16.9943 26.1302 16.91 26.1149C16.9715 25.9462 17.0355 25.7782 17.1021 25.6111C17.1709 25.637 17.2391 25.6642 17.3067 25.6926ZM17.5314 25.5924C17.5818 25.6154 17.632 25.6392 17.6817 25.6635C17.713 25.5411 17.7456 25.4189 17.7794 25.297C17.7405 25.2688 17.7013 25.2411 17.6617 25.2139C17.6168 25.3396 17.5734 25.4659 17.5314 25.5924ZM17.505 25.1102C17.4561 25.2459 17.409 25.3823 17.3635 25.5191C17.2996 25.4924 17.2352 25.4668 17.1703 25.4425C17.229 25.2995 17.2894 25.1573 17.3518 25.0158C17.4034 25.0465 17.4544 25.0779 17.505 25.1102ZM17.7257 25.0372C17.7614 25.0613 17.797 25.0859 17.8322 25.1109C17.8631 25.0044 17.8949 24.8982 17.9276 24.7922C17.9014 24.7659 17.8749 24.7399 17.8482 24.7141C17.8063 24.8215 17.7655 24.9291 17.7257 25.0372ZM17.7046 24.5805C17.6581 24.6983 17.6129 24.8165 17.5689 24.9351C17.5219 24.9055 17.4745 24.8767 17.4266 24.8485C17.4816 24.7269 17.5381 24.6059 17.5959 24.4854C17.6326 24.5166 17.6688 24.5484 17.7046 24.5805ZM17.9206 24.5315C17.9436 24.5532 17.9665 24.575 17.9892 24.597C18.0187 24.5054 18.0489 24.414 18.0799 24.3228C18.0644 24.3014 18.0487 24.2802 18.033 24.2591C17.9947 24.3496 17.9573 24.4404 17.9206 24.5315ZM17.9049 24.0941C17.8611 24.196 17.8185 24.2983 17.7767 24.4009C17.7441 24.3722 17.7113 24.3441 17.6782 24.3163C17.729 24.2131 17.7809 24.1102 17.8338 24.0079C17.8578 24.0364 17.8815 24.0651 17.9049 24.0941ZM17.705 23.86C17.6728 23.8243 17.64 23.7889 17.6068 23.754C17.5367 23.8678 17.4679 23.9823 17.4003 24.0975C17.4451 24.1305 17.4892 24.1642 17.5329 24.1985C17.5891 24.0851 17.6464 23.9723 17.705 23.86ZM17.451 24.3659C17.4041 24.3286 17.3566 24.2919 17.3084 24.2561C17.2315 24.3904 17.1564 24.5256 17.0831 24.6616C17.1451 24.6927 17.2065 24.7249 17.2672 24.7581C17.3269 24.6266 17.3882 24.496 17.451 24.3659ZM17.1925 24.9247C17.1283 24.8894 17.0632 24.8553 16.9975 24.8224C16.9138 24.9816 16.8325 25.1418 16.7536 25.3033C16.8359 25.3273 16.9175 25.3532 16.9984 25.3807C17.0611 25.2279 17.1258 25.076 17.1925 24.9247ZM16.9301 25.5497C16.8454 25.521 16.7598 25.4943 16.6734 25.4696C16.5828 25.6602 16.4954 25.8525 16.4114 26.0462L16.4768 26.0529C16.5606 26.0617 16.6439 26.0723 16.7268 26.0847C16.7918 25.9054 16.8595 25.727 16.9301 25.5497ZM16.6645 26.2594C16.5958 26.2496 16.5269 26.2411 16.4577 26.2339L16.3366 26.2212C16.2436 26.4421 16.155 26.6648 16.071 26.8892H16.4564C16.5219 26.6781 16.5913 26.4681 16.6645 26.2594ZM16.401 27.0711H16.0038C15.2966 29.0216 14.925 31.0969 14.925 33.2104V38.8561C14.925 41.898 17.1397 44.4245 20.0503 44.9219C18.0547 44.0267 16.5768 42.128 16.3315 39.803L15.7392 34.1881C15.4844 31.7722 15.7182 29.3551 16.401 27.0711ZM15.8762 26.8892C15.9618 26.6581 16.0522 26.4288 16.147 26.2013L9.69916 25.5261C6.32897 25.1732 3.8515 22.2582 4.01118 18.9276C3.83531 19.499 3.74067 20.1057 3.74067 20.7345C3.74067 24.1337 6.50618 26.8892 9.91762 26.8892H15.8762ZM4.26468 18.2499C4.2472 18.3592 4.23254 18.4695 4.22081 18.5809C3.86421 21.9614 6.3255 24.9899 9.71825 25.3452L16.2213 26.0262C16.3086 25.823 16.3996 25.6214 16.4943 25.4215C16.4271 25.4046 16.3594 25.389 16.2914 25.3746L9.64411 23.9667C6.59056 23.32 4.51855 20.5898 4.60832 17.5872C4.48089 17.8001 4.36601 18.0214 4.26468 18.2499ZM4.80866 17.2742C4.55898 20.314 6.60866 23.1379 9.68207 23.7888L16.3293 25.1967C16.4117 25.2141 16.4935 25.2332 16.5746 25.2542C16.658 25.0826 16.7441 24.9123 16.8329 24.7434C16.6333 24.6515 16.4273 24.571 16.2161 24.5026L9.75289 22.4101C7.13106 21.5613 5.44091 19.1765 5.3599 16.5804C5.1601 16.7978 4.97577 17.0297 4.80866 17.2742ZM5.35722 16.3181C5.17659 16.5033 5.00721 16.6994 4.8502 16.9053C4.87004 16.7668 4.89472 16.6279 4.92436 16.489C4.94775 16.3793 4.97393 16.2709 5.00283 16.164C5.12754 15.9474 5.26495 15.7394 5.41394 15.5409C5.37866 15.8008 5.35997 16.0603 5.35722 16.3181ZM5.53948 16.3929C5.54287 18.9843 7.20166 21.3929 9.80931 22.2371L16.2725 24.3296C16.4939 24.4012 16.7095 24.4858 16.9185 24.5824C16.9969 24.4369 17.0773 24.2924 17.1596 24.1489C16.8701 23.9477 16.5603 23.7727 16.2332 23.6277L10.0249 20.8735C7.87726 19.9208 6.52063 17.9276 6.28668 15.7549C6.02079 15.9478 5.77093 16.1612 5.53948 16.3929ZM6.26762 15.5449C6.0122 15.7235 5.77059 15.9204 5.54466 16.1337C5.55678 15.8404 5.59024 15.5454 5.64603 15.2506C5.83805 15.0247 6.04589 14.8131 6.26765 14.6175C6.24462 14.928 6.24492 15.2379 6.26762 15.5449ZM6.45825 15.6349C6.65377 17.7842 7.98001 19.7672 10.0992 20.7074L16.3075 23.4615C16.6404 23.6092 16.9562 23.7868 17.2514 23.9909C17.3244 23.8665 17.3991 23.7429 17.4752 23.6201C17.1385 23.2889 16.7584 22.999 16.3417 22.7593L10.4564 19.3736C8.80326 18.4226 7.74076 16.8438 7.39709 15.1139C7.06789 15.2607 6.75393 15.4353 6.45825 15.6349ZM7.36333 14.9298C7.04171 15.0704 6.73402 15.237 6.44287 15.4265C6.42456 15.1031 6.43186 14.7765 6.46593 14.4498C6.72031 14.2436 6.99106 14.0574 7.27557 13.8935C7.27632 14.2417 7.30589 14.5883 7.36333 14.9298ZM7.27865 13.6826C7.28829 13.375 7.32052 13.0668 7.376 12.7603C7.13514 12.9316 6.90642 13.1202 6.6919 13.3247C6.60542 13.6121 6.54116 13.9021 6.49829 14.1925C6.74523 14.0041 7.00605 13.8336 7.27865 13.6826ZM6.29251 14.3564C6.32233 14.1001 6.36819 13.844 6.43059 13.5892C6.26128 13.7713 6.10252 13.9642 5.95551 14.167C5.91559 14.2703 5.87821 14.3752 5.84347 14.4818C5.79941 14.6169 5.76031 14.7524 5.72604 14.888C5.90399 14.6994 6.09322 14.5219 6.29251 14.3564ZM5.47571 15.1698C5.50153 15.0388 5.53165 14.9079 5.56614 14.7772C5.44029 15.0029 5.32789 15.2383 5.23023 15.4825C5.30887 15.3756 5.39074 15.2713 5.47571 15.1698ZM6.25315 13.5128C6.34286 13.4143 6.43554 13.3189 6.531 13.2265C6.57056 13.0986 6.6144 12.9712 6.6626 12.8444C6.51321 13.0564 6.37627 13.2794 6.25315 13.5128ZM7.114 12.2783C7.06313 12.3774 7.01466 12.4785 6.96867 12.5814C6.9108 12.7109 6.85778 12.8414 6.80954 12.9725C7.00614 12.8036 7.21277 12.6469 7.42813 12.5032C7.48468 12.2515 7.55718 12.0015 7.64602 11.7545C7.45893 11.9175 7.28116 12.0924 7.114 12.2783ZM7.78393 11.4042C7.8365 11.2816 7.89326 11.1599 7.95423 11.0393C7.78413 11.2339 7.62516 11.4407 7.47875 11.659C7.57792 11.5707 7.67971 11.4858 7.78393 11.4042ZM4.67958 16.8115C4.65897 16.9451 4.64274 17.0785 4.63078 17.2115C4.55688 17.3214 4.48634 17.4338 4.4193 17.5484C4.49086 17.2952 4.57802 17.0493 4.67958 16.8115ZM21.4693 45.1823C21.6047 45.1747 21.7389 45.1627 21.8719 45.1467C21.995 45.1959 22.1199 45.2413 22.2462 45.2828C21.983 45.2657 21.7237 45.2319 21.4693 45.1823ZM12.2119 7.00243C12.3337 6.94896 12.4571 6.8994 12.5817 6.85378C12.6698 6.75315 12.7617 6.65471 12.8572 6.55866C12.6347 6.69156 12.4191 6.83951 12.2119 7.00243ZM13.5007 6.22419C13.4141 6.29383 13.329 6.36616 13.2454 6.44118C13.1394 6.53622 13.0376 6.63408 12.9399 6.73454C13.1885 6.65981 13.4415 6.60033 13.697 6.55633C13.8513 6.34931 14.0195 6.15031 14.2014 5.96075C13.9636 6.03404 13.7295 6.12187 13.5007 6.22419ZM14.4704 5.69666C14.5687 5.60569 14.6705 5.5173 14.7757 5.43166C14.5402 5.54072 14.3101 5.66548 14.0867 5.80602C14.2135 5.76552 14.3415 5.72907 14.4704 5.69666ZM14.5605 5.86182C14.3414 6.06765 14.1403 6.28677 13.9574 6.51697C14.2658 6.4768 14.5774 6.45903 14.8893 6.46407C15.052 6.20247 15.2346 5.95156 15.4364 5.71381C15.1417 5.74219 14.8489 5.79157 14.5605 5.86182ZM15.6957 5.69428C15.4755 5.93865 15.2769 6.19857 15.1009 6.47101C15.4483 6.48814 15.7954 6.53369 16.1386 6.60824C16.2935 6.29836 16.4741 6.00061 16.6789 5.71848C16.3519 5.68447 16.0232 5.67647 15.6957 5.69428ZM16.887 5.74368C16.6718 6.03006 16.4828 6.33377 16.3215 6.6508C16.6977 6.74427 17.0683 6.87299 17.4286 7.03778C17.5644 6.67124 17.7338 6.3179 17.9345 5.98255C17.5913 5.87213 17.2407 5.79257 16.887 5.74368ZM18.1113 6.04244C17.9048 6.38282 17.7315 6.74259 17.594 7.11641C17.9123 7.27328 18.2216 7.45892 18.5186 7.67387L18.7582 7.84738C18.8559 7.39806 19.0021 6.96323 19.1922 6.54994C18.8453 6.34373 18.4832 6.17465 18.1113 6.04244ZM19.3488 6.64624C19.1577 7.06565 19.0132 7.50769 18.9202 7.9646L20.2044 8.89438C20.2348 8.42201 20.3179 7.96161 20.4485 7.51969L20.1657 7.26599C19.9066 7.03359 19.6332 6.82706 19.3488 6.64624ZM20.5995 7.65517C20.4765 8.09471 20.4017 8.55246 20.3804 9.02171L21.7462 10.0104V9.59142C21.7462 9.30116 21.7657 9.01545 21.8037 8.73555L20.5995 7.65517ZM20.3144 3.46949C20.4474 3.47006 20.5803 3.47479 20.7126 3.48363C20.8342 3.42745 20.9583 3.37477 21.0847 3.32576C20.8274 3.35698 20.5701 3.40471 20.3144 3.46949Z" fill="#4845D2"/>
</svg>
