<svg width="183" height="40" viewBox="0 0 183 40" fill="none" xmlns="http://www.w3.org/2000/svg">
<path fill-rule="evenodd" clip-rule="evenodd" d="M58.3655 2.66213C58.3655 1.30662 59.4763 0.207764 60.8467 0.207764H65.1693C66.1446 0.207764 67.0899 0.542104 67.844 1.15387L69.1589 2.22049L69.1918 2.25015C69.2222 2.24003 69.2525 2.23014 69.2829 2.22049C71.6552 1.46889 74.5335 1.32595 77.4711 1.32595C80.4088 1.32595 83.287 1.46889 85.6593 2.22049C85.6898 2.23014 85.7201 2.24003 85.7504 2.25015L85.7833 2.22049L87.0983 1.15387C87.8524 0.542104 88.7977 0.207764 89.773 0.207764H94.0955C95.466 0.207764 96.5768 1.30662 96.5768 2.66213V4.17937C96.5768 5.35328 96.0769 6.47288 95.1996 7.26351L94.1388 8.2196C93.621 8.68635 92.9994 9.02604 92.3243 9.21123L92.0734 9.28007C93.0563 11.6 93.5993 14.0798 93.5993 16.0859C93.5993 24.1555 88.5516 27.6407 84.104 30.7115C80.6015 33.1299 77.4711 35.2911 77.4711 39.2322C77.4711 35.2911 74.3408 33.1299 70.8383 30.7115C66.3906 27.6407 61.3429 24.1555 61.3429 16.0859C61.3429 14.0798 61.886 11.6 62.8689 9.28007L62.618 9.21123C61.9428 9.02604 61.3213 8.68635 60.8034 8.2196L59.7426 7.26351C58.8654 6.47288 58.3655 5.35328 58.3655 4.17937V2.66213ZM80.6968 22.6831C80.6968 23.0687 80.5268 23.4383 80.2244 23.711C79.922 23.9836 79.5117 24.1368 79.0839 24.1368C78.7146 24.1368 78.3584 24.0225 78.0733 23.8159C78.5586 25.1008 79.8004 26.3182 81.6893 24.3604C83.3568 22.5412 81.6151 18.7042 79.9184 16.4273C79.3528 15.6684 78.4243 15.3031 77.4711 15.3031C76.518 15.3031 75.5895 15.6684 75.0239 16.4273C73.3271 18.7042 71.5855 22.5412 73.253 24.3604C75.1419 26.3182 76.3837 25.1008 76.869 23.8159C76.5839 24.0225 76.2276 24.1368 75.8584 24.1368C75.4305 24.1368 75.0203 23.9836 74.7179 23.711C74.4154 23.4383 74.2455 23.0687 74.2455 22.6831H80.6968ZM71.2948 11.325H66.8018L70.3427 14.1296C71.122 14.7466 72.2609 14.5494 72.743 13.7138C73.3518 12.6587 72.5432 11.325 71.2948 11.325ZM83.6474 11.325H88.1405L84.5995 14.1296C83.8203 14.7466 82.6814 14.5494 82.1992 13.7138C81.5904 12.6587 82.399 11.325 83.6474 11.325Z" fill="#72B800"/>
<path d="M101.929 27.85H105.91V12.8354H101.929V27.85ZM101.929 10.4939H105.91V6.9232H101.929V10.4939Z" fill="#355030"/>
<path d="M108.475 32.7671H112.455V26.1525H112.514C113.362 27.4403 114.738 28.2891 116.845 28.2891C120.709 28.2891 123.343 25.2159 123.343 20.3574C123.343 15.6744 120.797 12.4257 116.816 12.4257C114.767 12.4257 113.362 13.3915 112.397 14.7086H112.309V12.8354H108.475V32.7671ZM115.997 24.9818C113.626 24.9818 112.367 23.1964 112.367 20.4744C112.367 17.7818 113.362 15.6452 115.85 15.6452C118.309 15.6452 119.304 17.6354 119.304 20.4744C119.304 23.3135 118.016 24.9818 115.997 24.9818Z" fill="#355030"/>
<path d="M131.283 28.2891C135.03 28.2891 137.605 26.4744 137.605 23.4598C137.605 19.9476 134.825 19.2452 132.308 18.7183C130.171 18.2793 128.181 18.1622 128.181 16.8744C128.181 15.7915 129.205 15.2061 130.757 15.2061C132.454 15.2061 133.479 15.7915 133.654 17.4013H137.254C136.961 14.3866 134.766 12.4257 130.815 12.4257C127.391 12.4257 124.698 13.9769 124.698 17.2257C124.698 20.5037 127.332 21.2354 130.025 21.7622C132.074 22.172 133.976 22.3183 133.976 23.7525C133.976 24.8061 132.981 25.4793 131.225 25.4793C129.44 25.4793 128.21 24.7183 127.947 22.9915H124.259C124.493 26.1818 126.922 28.2891 131.283 28.2891Z" fill="#355030"/>
<path d="M152.719 27.8501V12.8354H148.738V21.4988C148.738 23.4891 147.597 24.894 145.723 24.894C144.026 24.894 143.236 23.9281 143.236 22.172V12.8354H139.284V22.8452C139.284 26.1232 141.158 28.2598 144.494 28.2598C146.601 28.2598 147.772 27.4696 148.797 26.094H148.884V27.8501H152.719Z" fill="#355030"/>
<path d="M155.293 27.85H159.274V19.1281C159.274 17.1379 160.357 15.85 161.966 15.85C163.43 15.85 164.279 16.7281 164.279 18.4257V27.85H168.259V19.1281C168.259 17.1379 169.283 15.85 170.952 15.85C172.415 15.85 173.264 16.7281 173.264 18.4257V27.85H177.244V17.7525C177.244 14.4744 175.459 12.4257 172.298 12.4257C170.396 12.4257 168.815 13.4208 167.791 15.0598H167.732C167.001 13.4793 165.479 12.4257 163.576 12.4257C161.498 12.4257 160.035 13.4793 159.215 14.8549H159.127V12.8354H155.293V27.85Z" fill="#355030"/>
<path d="M1.43579 27.85H5.41628V6.9232H1.43579V27.85Z" fill="#355030"/>
<path d="M15.1491 28.2891C19.8028 28.2891 22.993 24.8354 22.993 20.3574C22.993 15.8793 19.8028 12.4257 15.1491 12.4257C10.4954 12.4257 7.30518 15.8793 7.30518 20.3574C7.30518 24.8354 10.4954 28.2891 15.1491 28.2891ZM15.1491 25.2452C12.6906 25.2452 11.3442 23.2842 11.3442 20.3574C11.3442 17.4305 12.6906 15.4403 15.1491 15.4403C17.5784 15.4403 18.954 17.4305 18.954 20.3574C18.954 23.2842 17.5784 25.2452 15.1491 25.2452Z" fill="#355030"/>
<path d="M31.4579 32.972C33.6823 32.972 35.614 32.4452 36.8726 31.2744C37.9847 30.25 38.6579 28.8159 38.6579 26.7086V12.8354H34.8238V14.4159H34.7652C33.8579 13.1574 32.4823 12.4257 30.6091 12.4257C26.8043 12.4257 24.1116 15.294 24.1116 19.772C24.1116 24.3086 27.3896 26.9427 30.7262 26.9427C32.6286 26.9427 33.7701 26.1818 34.6482 25.1866H34.736V26.8257C34.736 28.8744 33.653 29.9574 31.3994 29.9574C29.5555 29.9574 28.7067 29.2257 28.3847 28.2891H24.4335C24.8433 31.2159 27.3604 32.972 31.4579 32.972ZM31.3994 23.7525C29.3506 23.7525 28.0043 22.2598 28.0043 19.7135C28.0043 17.1964 29.3506 15.6159 31.3701 15.6159C33.7701 15.6159 34.9408 17.4891 34.9408 19.6842C34.9408 21.9086 33.9164 23.7525 31.3994 23.7525Z" fill="#355030"/>
<path d="M48.3332 28.2891C52.9868 28.2891 56.1771 24.8354 56.1771 20.3574C56.1771 15.8793 52.9868 12.4257 48.3332 12.4257C43.6795 12.4257 40.4893 15.8793 40.4893 20.3574C40.4893 24.8354 43.6795 28.2891 48.3332 28.2891ZM48.3332 25.2452C45.8746 25.2452 44.5283 23.2842 44.5283 20.3574C44.5283 17.4305 45.8746 15.4403 48.3332 15.4403C50.7624 15.4403 52.138 17.4305 52.138 20.3574C52.138 23.2842 50.7624 25.2452 48.3332 25.2452Z" fill="#355030"/>
<path d="M177.065 9.55736C177.065 8.88384 177.61 8.33784 178.284 8.33784H180.723C181.397 8.33784 181.943 8.88384 181.943 9.55736C181.943 10.2308 181.397 10.7769 180.723 10.7769H178.284C177.61 10.7769 177.065 10.2308 177.065 9.55736Z" fill="#355030"/>
</svg>
