<svg width="174" height="44" viewBox="0 0 174 44" fill="none" xmlns="http://www.w3.org/2000/svg">
<g clip-path="url(#clip0_80_155)">
<path d="M27.9814 22.0285C29.3943 20.8453 30.2928 19.0682 30.2928 17.0811C30.2928 15.0942 29.3943 13.3171 27.9814 12.1339C28.1434 12.0555 28.2992 11.9704 28.4477 11.8781C29.3848 11.2954 30.4909 10.9589 31.6757 10.9589C35.057 10.9589 37.798 13.7 37.798 17.0811C37.798 20.4624 35.057 23.2034 31.6757 23.2034C30.4909 23.2034 29.3848 22.8669 28.4477 22.2843C28.2992 22.192 28.1434 22.1069 27.9814 22.0285Z" fill="url(#paint0_linear_80_155)"/>
<path d="M26.2811 18.045C26.9131 16.3139 26.8027 14.3256 25.8091 12.6048C24.8156 10.884 23.1489 9.79423 21.3337 9.47602C21.4348 9.32718 21.5271 9.17556 21.6095 9.02147C22.1298 8.04825 22.9195 7.20372 23.9455 6.61134C26.8738 4.92071 30.6182 5.92401 32.3088 8.85225C33.9994 11.7805 32.9961 15.5249 30.0678 17.2155C29.0418 17.8078 27.9156 18.0695 26.8126 18.0335C26.638 18.0277 26.4605 18.032 26.2811 18.045Z" fill="url(#paint1_linear_80_155)"/>
<path d="M22.8166 15.4453C22.4984 13.6302 21.4085 11.9635 19.6877 10.97C17.9669 9.97645 15.9786 9.86601 14.2476 10.498C14.2607 10.3186 14.2649 10.1411 14.2591 9.96647C14.2231 8.86348 14.4847 7.73725 15.0771 6.7112C16.7678 3.78295 20.5121 2.77966 23.4404 4.47029C26.3686 6.16091 27.372 9.90525 25.6813 12.8335C25.0889 13.8595 24.2444 14.6493 23.2711 15.1696C23.1171 15.2519 22.9655 15.3443 22.8166 15.4453Z" fill="url(#paint2_linear_80_155)"/>
<path d="M18.516 14.9263C17.3328 13.5134 15.5556 12.6149 13.5686 12.6149C11.5815 12.6149 9.80443 13.5134 8.62126 14.9263C8.54289 14.7643 8.45777 14.6085 8.36552 14.4601C7.78282 13.5229 7.44629 12.4168 7.44629 11.232C7.44629 7.85073 10.1873 5.10968 13.5686 5.10968C16.9499 5.10968 19.6909 7.85073 19.6909 11.232C19.6909 12.4168 19.3543 13.5229 18.7717 14.4601C18.6794 14.6085 18.5943 14.7643 18.516 14.9263Z" fill="url(#paint3_linear_80_155)"/>
<path d="M14.5314 16.6268C12.8003 15.9948 10.8119 16.1053 9.09114 17.0987C7.37034 18.0922 6.28052 19.7589 5.96232 21.5741C5.81349 21.473 5.66185 21.3807 5.50776 21.2983C4.53454 20.778 3.69001 19.9883 3.09763 18.9623C1.40699 16.034 2.41028 12.2897 5.33854 10.599C8.26679 8.90841 12.0111 9.9117 13.7018 12.84C14.2942 13.866 14.5558 14.9922 14.5197 16.0952C14.514 16.2698 14.5182 16.4473 14.5314 16.6268Z" fill="url(#paint4_linear_80_155)"/>
<path d="M11.9306 20.0917C10.1154 20.4099 8.44875 21.4997 7.45524 23.2205C6.46174 24.9413 6.3513 26.9296 6.98331 28.6607C6.80388 28.6476 6.62635 28.6434 6.4517 28.649C5.34873 28.6851 4.22249 28.4235 3.19645 27.8311C0.268199 26.1404 -0.735094 22.3962 0.955532 19.4679C2.64616 16.5397 6.39049 15.5363 9.31875 17.227C10.3448 17.8194 11.1345 18.6639 11.6548 19.637C11.7371 19.7912 11.8296 19.9428 11.9306 20.0917Z" fill="url(#paint5_linear_80_155)"/>
<path d="M11.4106 24.3926C9.99768 25.5758 9.09917 27.3529 9.09917 29.3399C9.09917 31.3269 9.99768 33.1041 11.4106 34.2872C11.2486 34.3656 11.0928 34.4508 10.9444 34.543C10.0072 35.1256 8.90106 35.4622 7.71629 35.4622C4.33504 35.4622 1.59399 32.7211 1.59399 29.3399C1.59399 25.9586 4.33504 23.2176 7.71629 23.2176C8.90106 23.2176 10.0072 23.5541 10.9444 24.1369C11.0928 24.2291 11.2486 24.3142 11.4106 24.3926Z" fill="url(#paint6_linear_80_155)"/>
<path d="M13.1105 28.3771C12.4784 30.1082 12.5889 32.0965 13.5824 33.8173C14.5759 35.5382 16.2426 36.6279 18.0578 36.9461C17.9567 37.095 17.8644 37.2467 17.782 37.4008C17.2617 38.3739 16.472 39.2184 15.446 39.8108C12.5177 41.5015 8.77336 40.4981 7.08273 37.57C5.3921 34.6417 6.3954 30.8974 9.32364 29.2067C10.3497 28.6143 11.476 28.3527 12.5789 28.3888C12.7535 28.3944 12.931 28.3902 13.1105 28.3771Z" fill="url(#paint7_linear_80_155)"/>
<path d="M16.5753 30.978C16.8935 32.7931 17.9833 34.4598 19.7041 35.4532C21.4249 36.4468 23.4133 36.5572 25.1444 35.9252C25.1313 36.1047 25.1271 36.2821 25.1328 36.4568C25.1689 37.5598 24.9072 38.686 24.3149 39.712C22.6242 42.6403 18.8799 43.6436 15.9516 41.9529C13.0233 40.2623 12.02 36.518 13.7107 33.5897C14.3031 32.5637 15.1476 31.774 16.1207 31.2537C16.2749 31.1713 16.4265 31.0789 16.5753 30.978Z" fill="url(#paint8_linear_80_155)"/>
<path d="M20.8763 31.498C22.0595 32.9109 23.8367 33.8094 25.8237 33.8094C27.8108 33.8094 29.5879 32.9109 30.7711 31.498C30.8494 31.6599 30.9345 31.8158 31.0268 31.9641C31.6095 32.9013 31.946 34.0075 31.946 35.1923C31.946 38.5736 29.205 41.3146 25.8237 41.3146C22.4424 41.3146 19.7014 38.5736 19.7014 35.1923C19.7014 34.0075 20.0379 32.9013 20.6206 31.9641C20.7129 31.8158 20.798 31.6599 20.8763 31.498Z" fill="url(#paint9_linear_80_155)"/>
<path d="M24.8608 29.798C26.5919 30.43 28.5802 30.3196 30.301 29.3262C32.0218 28.3327 33.1116 26.666 33.4298 24.8508C33.5786 24.9517 33.7303 25.0442 33.8844 25.1266C34.8577 25.6469 35.7022 26.4366 36.2945 27.4626C37.9852 30.3909 36.9819 34.1352 34.0537 35.8259C31.1254 37.5164 27.3811 36.5132 25.6904 33.5849C25.098 32.5589 24.8364 31.4326 24.8724 30.3297C24.8782 30.1551 24.874 29.9775 24.8608 29.798Z" fill="url(#paint10_linear_80_155)"/>
<path d="M31.9407 23.1979C31.9394 23.2 31.9382 23.2022 31.937 23.2043C30.9435 24.9251 29.2768 26.015 27.4617 26.3331C27.5626 26.4821 27.6551 26.6337 27.7374 26.7877C28.2577 27.761 29.0475 28.6055 30.0735 29.1979C33.0018 30.8885 36.7461 29.8852 38.4367 26.957C39.8861 24.4465 39.3555 21.3362 37.3294 19.4345C36.4393 21.5706 34.3738 23.0942 31.9407 23.1979Z" fill="url(#paint11_linear_80_155)"/>
<path d="M53.6132 11.6359V29.9211H49.5608V11.6359H53.6132ZM50.2032 29.9211L50.2773 26.3381H60.7789V29.9211H50.2032ZM61.4132 23.7189C61.4132 22.4176 61.685 21.2809 62.2286 20.309C62.7722 19.3205 63.5382 18.5546 64.5266 18.011C65.5149 17.4674 66.668 17.1955 67.986 17.1955C69.3038 17.1955 70.4486 17.4674 71.4205 18.011C72.409 18.5546 73.1749 19.3205 73.7185 20.309C74.2621 21.2809 74.5339 22.4176 74.5339 23.7189C74.5339 25.0203 74.2621 26.157 73.7185 27.1289C73.1749 28.1008 72.409 28.8585 71.4205 29.4021C70.4486 29.9457 69.3038 30.2175 67.986 30.2175C66.668 30.2175 65.5149 29.9457 64.5266 29.4021C63.5382 28.8585 62.7722 28.1008 62.2286 27.1289C61.685 26.157 61.4132 25.0203 61.4132 23.7189ZM65.2431 23.6942C65.2431 24.3202 65.3584 24.8721 65.589 25.3498C65.8197 25.8111 66.1409 26.1734 66.5527 26.437C66.9646 26.6841 67.4423 26.8076 67.986 26.8076C68.5296 26.8076 69.0072 26.6841 69.4191 26.437C69.8309 26.1734 70.1439 25.8111 70.3581 25.3498C70.5887 24.8721 70.704 24.3202 70.704 23.6942C70.704 23.0682 70.5887 22.5246 70.3581 22.0634C70.1439 21.6021 69.8309 21.248 69.4191 21.0008C69.0072 20.7373 68.5296 20.6054 67.986 20.6054C67.4423 20.6054 66.9646 20.7373 66.5527 21.0008C66.1409 21.248 65.8197 21.6021 65.589 22.0634C65.3584 22.5246 65.2431 23.0682 65.2431 23.6942ZM75.3933 23.5213C75.3933 22.2528 75.6486 21.1409 76.1592 20.1854C76.6699 19.23 77.37 18.4887 78.2596 17.9615C79.1491 17.4179 80.1705 17.1461 81.3235 17.1461C82.2955 17.1461 83.1521 17.3438 83.8933 17.7392C84.6512 18.1345 85.1617 18.6535 85.4254 19.2959L85.0547 19.543L85.3513 17.5663H88.7858V29.1303C88.7858 30.58 88.5058 31.832 87.9458 32.8862C87.3856 33.9569 86.5867 34.7806 85.5488 35.3572C84.5276 35.9337 83.3086 36.222 81.8918 36.222C80.7058 36.222 79.6351 35.9832 78.6796 35.5054C77.7406 35.0442 76.9747 34.3853 76.3816 33.5286C75.8051 32.672 75.4591 31.6837 75.3438 30.5635H79.1985C79.2315 31.2718 79.5115 31.8154 80.0386 32.1944C80.5822 32.5733 81.2741 32.7627 82.1143 32.7627C83.0533 32.7627 83.778 32.4991 84.2887 31.9719C84.7994 31.4613 85.0547 30.7777 85.0547 29.9211V27.3018L85.4006 27.623C85.1371 28.2656 84.6264 28.7844 83.8687 29.1798C83.1109 29.5751 82.2378 29.7728 81.2494 29.7728C80.1127 29.7728 79.0996 29.5093 78.2101 28.9821C77.3371 28.455 76.6451 27.7219 76.1345 26.783C75.6403 25.844 75.3933 24.7568 75.3933 23.5213ZM79.2479 23.4224C79.2479 24.0155 79.3714 24.5425 79.6186 25.0038C79.8657 25.4651 80.1951 25.8275 80.607 26.091C81.0188 26.3381 81.4718 26.4617 81.966 26.4617C82.559 26.4617 83.0779 26.3381 83.5228 26.091C83.984 25.8275 84.3382 25.4651 84.5852 25.0038C84.8487 24.5425 84.9806 24.0155 84.9806 23.4224C84.9806 22.8129 84.8487 22.294 84.5852 21.8657C84.3217 21.421 83.9592 21.0749 83.498 20.8279C83.0533 20.5808 82.5343 20.4572 81.9413 20.4572C81.4471 20.4572 80.9941 20.5808 80.5822 20.8279C80.1705 21.0749 79.8409 21.421 79.5939 21.8657C79.3632 22.3105 79.2479 22.8293 79.2479 23.4224ZM90.142 23.7189C90.142 22.4176 90.4138 21.2809 90.9575 20.309C91.5011 19.3205 92.267 18.5546 93.2555 18.011C94.2438 17.4674 95.397 17.1955 96.7148 17.1955C98.0327 17.1955 99.1775 17.4674 100.149 18.011C101.138 18.5546 101.904 19.3205 102.447 20.309C102.991 21.2809 103.263 22.4176 103.263 23.7189C103.263 25.0203 102.991 26.157 102.447 27.1289C101.904 28.1008 101.138 28.8585 100.149 29.4021C99.1775 29.9457 98.0327 30.2175 96.7148 30.2175C95.397 30.2175 94.2438 29.9457 93.2555 29.4021C92.267 28.8585 91.5011 28.1008 90.9575 27.1289C90.4138 26.157 90.142 25.0203 90.142 23.7189ZM93.972 23.6942C93.972 24.3202 94.0873 24.8721 94.3179 25.3498C94.5485 25.8111 94.8698 26.1734 95.2817 26.437C95.6935 26.6841 96.1712 26.8076 96.7148 26.8076C97.2584 26.8076 97.7362 26.6841 98.148 26.437C98.5597 26.1734 98.8727 25.8111 99.0869 25.3498C99.3176 24.8721 99.4329 24.3202 99.4329 23.6942C99.4329 23.0682 99.3176 22.5246 99.0869 22.0634C98.8727 21.6021 98.5597 21.248 98.148 21.0008C97.7362 20.7373 97.2584 20.6054 96.7148 20.6054C96.1712 20.6054 95.6935 20.7373 95.2817 21.0008C94.8698 21.248 94.5485 21.6021 94.3179 22.0634C94.0873 22.5246 93.972 23.0682 93.972 23.6942ZM104.863 29.9211V17.5663H108.693V29.9211H104.863ZM106.791 15.6388C106.181 15.6388 105.662 15.4329 105.234 15.0211C104.822 14.5928 104.616 14.0739 104.616 13.4644C104.616 12.8549 104.822 12.3442 105.234 11.9323C105.662 11.5206 106.181 11.3147 106.791 11.3147C107.384 11.3147 107.886 11.5206 108.298 11.9323C108.726 12.3442 108.941 12.8549 108.941 13.4644C108.941 14.0739 108.726 14.5928 108.298 15.0211C107.886 15.4329 107.384 15.6388 106.791 15.6388ZM111.17 35.8514V17.5663H114.655L114.851 19.0735C115.198 18.497 115.75 18.0357 116.507 17.6897C117.265 17.3438 118.081 17.1709 118.953 17.1709C120.106 17.1709 121.111 17.4262 121.968 17.9368C122.825 18.4475 123.5 19.1806 123.995 20.1361C124.488 21.0749 124.752 22.2116 124.786 23.546C124.818 24.8473 124.603 26.0087 124.143 27.03C123.681 28.0348 123.015 28.8256 122.141 29.4021C121.267 29.9788 120.214 30.267 118.978 30.267C118.122 30.267 117.323 30.1187 116.582 29.8223C115.84 29.5257 115.288 29.1468 114.926 28.6856V35.8514H111.17ZM115 23.7437C115 24.3531 115.123 24.8967 115.371 25.3745C115.634 25.8357 115.989 26.1982 116.433 26.4617C116.894 26.7088 117.421 26.8323 118.014 26.8323C118.624 26.8323 119.144 26.7006 119.571 26.437C120.016 26.1734 120.354 25.8111 120.584 25.3498C120.832 24.8885 120.955 24.3531 120.955 23.7437C120.955 23.1341 120.832 22.5987 120.584 22.1375C120.354 21.6763 120.016 21.3138 119.571 21.0503C119.144 20.7867 118.624 20.6549 118.014 20.6549C117.421 20.6549 116.894 20.7867 116.433 21.0503C115.989 21.2974 115.634 21.6516 115.371 22.1128C115.123 22.5741 115 23.1177 115 23.7437ZM125.437 26.0169H128.873C128.873 26.4452 129.012 26.783 129.293 27.03C129.589 27.2771 130.017 27.4007 130.577 27.4007C130.906 27.4007 131.179 27.3595 131.393 27.2771C131.624 27.1947 131.797 27.0794 131.911 26.9312C132.044 26.7664 132.109 26.5853 132.109 26.3876C132.109 26.1734 132.036 25.9922 131.887 25.844C131.755 25.6957 131.524 25.5804 131.195 25.4981L129.021 24.9297C127.801 24.6003 126.937 24.1142 126.426 23.4718C125.915 22.8293 125.66 22.0963 125.66 21.2726C125.66 20.449 125.866 19.7324 126.278 19.123C126.706 18.497 127.283 18.0192 128.007 17.6897C128.732 17.3438 129.547 17.1709 130.454 17.1709C131.821 17.1709 132.941 17.5497 133.814 18.3076C134.704 19.0487 135.173 20.0618 135.223 21.3467H131.788C131.805 20.9184 131.681 20.5808 131.418 20.3336C131.154 20.0701 130.808 19.9384 130.38 19.9384C130.001 19.9384 129.688 20.0372 129.441 20.2349C129.21 20.416 129.095 20.6714 129.095 21.0008C129.095 21.3138 129.21 21.5444 129.441 21.6928C129.672 21.8245 129.984 21.9398 130.38 22.0387L132.579 22.5823C133.601 22.8293 134.375 23.2495 134.902 23.8424C135.429 24.4355 135.692 25.1933 135.692 26.1158C135.692 27.3842 135.223 28.389 134.284 29.1303C133.345 29.8716 132.126 30.2423 130.627 30.2423C129.079 30.2423 127.834 29.8552 126.896 29.081C125.973 28.2902 125.487 27.2689 125.437 26.0169ZM141.764 30.2423C140.314 30.2423 139.194 29.7892 138.403 28.8833C137.613 27.9772 137.217 26.7911 137.217 25.325V17.5663H141.023V23.9413C141.023 25.0944 141.229 25.8686 141.64 26.264C142.052 26.6594 142.595 26.8571 143.271 26.8571C144.145 26.8571 144.745 26.6099 145.075 26.1158C145.404 25.6216 145.569 24.9133 145.569 23.9907V17.5663H149.375V29.9211H145.792L145.544 28.5374C145.165 29.0479 144.63 29.4598 143.939 29.7728C143.246 30.0858 142.522 30.2423 141.764 30.2423ZM155.656 29.9211H151.826V17.5663H155.385L155.656 19.6912L155.236 19.2464C155.566 18.6204 156.06 18.118 156.719 17.7392C157.394 17.3438 158.118 17.1461 158.894 17.1461C160.112 17.1461 161.067 17.4179 161.76 17.9615C162.468 18.5051 162.979 19.2218 163.291 20.1113H162.698C162.896 19.2218 163.374 18.5051 164.132 17.9615C164.89 17.4179 165.795 17.1461 166.85 17.1461C168.448 17.1461 169.626 17.5744 170.384 18.431C171.141 19.2876 171.52 20.4243 171.52 21.841V29.9211H167.814V22.78C167.814 22.0057 167.624 21.4291 167.245 21.0503C166.883 20.6714 166.397 20.482 165.787 20.482C165.425 20.482 165.079 20.5644 164.75 20.729C164.42 20.8773 164.148 21.1491 163.934 21.5444C163.72 21.9234 163.612 22.467 163.612 23.1753V29.9211H159.857V22.78C159.857 22.0057 159.676 21.4374 159.313 21.0749C158.95 20.6961 158.465 20.5067 157.855 20.5067C157.493 20.5067 157.139 20.589 156.792 20.7538C156.463 20.902 156.191 21.1738 155.978 21.5692C155.764 21.9481 155.656 22.4834 155.656 23.1753V29.9211Z" fill="#1B3D5B"/>
</g>
<defs>
<linearGradient id="paint0_linear_80_155" x1="28.748" y1="10.9589" x2="28.748" y2="23.2034" gradientUnits="userSpaceOnUse">
<stop stop-color="#25136D"/>
<stop offset="1" stop-color="#3D9BA2"/>
</linearGradient>
<linearGradient id="paint1_linear_80_155" x1="21.4101" y1="8.07518" x2="27.5324" y2="18.6794" gradientUnits="userSpaceOnUse">
<stop stop-color="#25136D"/>
<stop offset="1" stop-color="#3D9BA2"/>
</linearGradient>
<linearGradient id="paint2_linear_80_155" x1="13.6133" y1="9.24667" x2="24.2174" y2="15.3689" gradientUnits="userSpaceOnUse">
<stop stop-color="#25136D"/>
<stop offset="1" stop-color="#3D9BA2"/>
</linearGradient>
<linearGradient id="paint3_linear_80_155" x1="7.44629" y1="14.1596" x2="19.6909" y2="14.1596" gradientUnits="userSpaceOnUse">
<stop stop-color="#25136D"/>
<stop offset="1" stop-color="#3D9BA2"/>
</linearGradient>
<linearGradient id="paint4_linear_80_155" x1="4.56148" y1="21.4977" x2="15.1656" y2="15.3754" gradientUnits="userSpaceOnUse">
<stop stop-color="#25136D"/>
<stop offset="1" stop-color="#3D9BA2"/>
</linearGradient>
<linearGradient id="paint5_linear_80_155" x1="5.73194" y1="29.2949" x2="11.8543" y2="18.6908" gradientUnits="userSpaceOnUse">
<stop stop-color="#25136D"/>
<stop offset="1" stop-color="#3D9BA2"/>
</linearGradient>
<linearGradient id="paint6_linear_80_155" x1="10.644" y1="35.4622" x2="10.644" y2="23.2176" gradientUnits="userSpaceOnUse">
<stop stop-color="#25136D"/>
<stop offset="1" stop-color="#3D9BA2"/>
</linearGradient>
<linearGradient id="paint7_linear_80_155" x1="17.9814" y1="38.347" x2="11.8591" y2="27.7429" gradientUnits="userSpaceOnUse">
<stop stop-color="#25136D"/>
<stop offset="1" stop-color="#3D9BA2"/>
</linearGradient>
<linearGradient id="paint8_linear_80_155" x1="25.7787" y1="37.1766" x2="15.1745" y2="31.0542" gradientUnits="userSpaceOnUse">
<stop stop-color="#25136D"/>
<stop offset="1" stop-color="#3D9BA2"/>
</linearGradient>
<linearGradient id="paint9_linear_80_155" x1="31.946" y1="32.2645" x2="19.7014" y2="32.2645" gradientUnits="userSpaceOnUse">
<stop stop-color="#25136D"/>
<stop offset="1" stop-color="#3D9BA2"/>
</linearGradient>
<linearGradient id="paint10_linear_80_155" x1="34.8307" y1="24.9272" x2="24.2266" y2="31.0495" gradientUnits="userSpaceOnUse">
<stop stop-color="#25136D"/>
<stop offset="1" stop-color="#3D9BA2"/>
</linearGradient>
<linearGradient id="paint11_linear_80_155" x1="33.6603" y1="17.1299" x2="27.5381" y2="27.734" gradientUnits="userSpaceOnUse">
<stop stop-color="#25136D"/>
<stop offset="1" stop-color="#3D9BA2"/>
</linearGradient>
<clipPath id="clip0_80_155">
<rect width="173.132" height="43" fill="white" transform="translate(0.134277 0.5)"/>
</clipPath>
</defs>
</svg>
