<svg width="180" height="38" viewBox="0 0 180 38" fill="none" xmlns="http://www.w3.org/2000/svg">
<g clip-path="url(#clip0_80_116)">
<path fill-rule="evenodd" clip-rule="evenodd" d="M23.4383 11.101C21.9852 10.0572 20.2769 9.5 18.5293 9.5V0C22.0244 0 25.4411 1.11433 28.3472 3.20208C31.2533 5.28982 33.5183 8.25722 34.8559 11.729C36.1934 15.2008 36.5434 19.0211 35.8615 22.7067C35.1797 26.3923 33.4966 29.7778 31.0251 32.435C28.5537 35.0922 25.4049 36.9018 21.9769 37.6349C18.5489 38.368 14.9957 37.9917 11.7666 36.5537C8.53752 35.1156 5.77757 32.6804 3.83578 29.5558C1.89398 26.4313 0.857544 22.7578 0.857544 19H9.69343C9.69343 20.8789 10.2117 22.7156 11.1825 24.2779C12.1534 25.8402 13.5334 27.0578 15.148 27.7769C16.7625 28.4959 18.5391 28.684 20.2531 28.3174C21.9671 27.9509 23.5415 27.0461 24.7773 25.7175C26.013 24.3889 26.8545 22.6962 27.1954 20.8534C27.5364 19.0105 27.3614 17.1004 26.6926 15.3645C26.0238 13.6286 24.8913 12.1449 23.4383 11.101Z" fill="#007DFC"/>
<path fill-rule="evenodd" clip-rule="evenodd" d="M9.69342 5.02068e-06C9.69342 1.24756 9.46488 2.4829 9.02084 3.6355C8.57679 4.78809 7.92595 5.83536 7.10545 6.71752C6.28497 7.59968 5.31091 8.29944 4.23889 8.77687C3.16687 9.25428 2.01788 9.5 0.857544 9.5L0.857544 19C3.17823 19 5.4762 18.5086 7.62024 17.5537C9.76429 16.5989 11.7124 15.1993 13.3533 13.435C14.9943 11.6708 16.296 9.57619 17.1841 7.27099C18.0722 4.9658 18.5293 2.49511 18.5293 0L9.69342 5.02068e-06Z" fill="#007DFC"/>
<path d="M111.853 13.7299H107.566V28.3716H111.853V13.7299Z" fill="#007DFC"/>
<path d="M108.043 10.9883C108.491 11.4703 109.051 11.7113 109.724 11.7113C110.396 11.7113 110.947 11.4703 111.377 10.9883C111.807 10.4862 112.022 9.8836 112.022 9.18065C112.022 8.45762 111.807 7.85506 111.377 7.37305C110.947 6.891 110.396 6.64999 109.724 6.64999C109.051 6.64999 108.491 6.891 108.043 7.37305C107.613 7.85506 107.398 8.45762 107.398 9.18065C107.398 9.8836 107.613 10.4862 108.043 10.9883Z" fill="#007DFC"/>
<path d="M46.0586 28.3716V7.1019H50.4579V24.2141H59.2285V28.3716H46.0586Z" fill="#007DFC"/>
<path fill-rule="evenodd" clip-rule="evenodd" d="M67.1509 28.7029C65.7499 28.7029 64.4796 28.3716 63.3401 27.7087C62.2192 27.0259 61.3319 26.102 60.6781 24.937C60.0243 23.7721 59.6974 22.4666 59.6974 21.0206C59.6974 19.5745 60.0243 18.279 60.6781 17.1342C61.3319 15.9894 62.2192 15.0855 63.3401 14.4228C64.4609 13.7399 65.7312 13.3984 67.1509 13.3984C68.5706 13.3984 69.8409 13.7299 70.9617 14.3926C72.0826 15.0554 72.9699 15.9693 73.6237 17.1342C74.2776 18.279 74.6045 19.5745 74.6045 21.0206C74.6045 22.4666 74.2776 23.7721 73.6237 24.937C72.9699 26.102 72.0826 27.0259 70.9617 27.7087C69.8409 28.3716 68.5706 28.7029 67.1509 28.7029ZM67.1509 24.5153C67.7674 24.5153 68.3091 24.3747 68.7762 24.0935C69.2431 23.7923 69.5981 23.3805 69.8409 22.8583C70.1024 22.3161 70.2332 21.7034 70.2332 21.0206C70.2332 20.3377 70.1024 19.7452 69.8409 19.2431C69.5793 18.7209 69.2151 18.3192 68.7481 18.038C68.2997 17.7367 67.7674 17.5861 67.1509 17.5861C66.5531 17.5861 66.0208 17.7367 65.5537 18.038C65.0867 18.3192 64.7224 18.7209 64.4609 19.2431C64.1994 19.7653 64.0687 20.3678 64.0687 21.0507C64.0687 21.7135 64.1994 22.3161 64.4609 22.8583C64.7224 23.3805 65.0867 23.7923 65.5537 24.0935C66.0208 24.3747 66.5531 24.5153 67.1509 24.5153Z" fill="#007DFC"/>
<path fill-rule="evenodd" clip-rule="evenodd" d="M77.9999 34.0957C79.1393 34.658 80.4563 34.9392 81.9508 34.9392C83.4079 34.9392 84.7062 34.6279 85.8457 34.0052C86.9853 33.3826 87.8818 32.5191 88.5357 31.4144C89.1895 30.3097 89.5168 29.0043 89.5168 27.4978V13.7299H85.3132V14.7136C85.0006 14.4307 84.6456 14.1932 84.2485 14.001C83.5199 13.6194 82.6886 13.4285 81.7547 13.4285C80.5031 13.4285 79.3915 13.7499 78.4202 14.3926C77.4487 15.0152 76.6829 15.8789 76.1224 16.9835C75.562 18.0681 75.2819 19.2933 75.2819 20.6591C75.2819 22.0048 75.562 23.2299 76.1224 24.3345C76.6829 25.4392 77.4487 26.3129 78.4202 26.9556C79.3915 27.5983 80.5031 27.9196 81.7547 27.9196C82.67 27.9196 83.5013 27.7289 84.2485 27.3473C84.6104 27.1624 84.9374 26.9446 85.2292 26.6937V27.6184C85.2292 28.6427 84.921 29.436 84.3045 29.9984C83.7068 30.5608 82.8755 30.8419 81.8107 30.8419C80.9514 30.8419 80.2135 30.6813 79.597 30.3599C78.9993 30.0386 78.4575 29.5666 77.9718 28.9439L75.3379 31.7759C75.9916 32.7801 76.879 33.5534 77.9999 34.0957ZM84.1084 23.4006C83.6787 23.6818 83.1651 23.8224 82.5672 23.8224C81.9695 23.8224 81.4464 23.6818 80.9981 23.4006C80.5684 23.1194 80.2322 22.7378 79.9894 22.2557C79.7465 21.7537 79.625 21.2214 79.625 20.6591C79.625 20.0565 79.7465 19.5142 79.9894 19.0322C80.2322 18.5502 80.5777 18.1686 81.0261 17.8874C81.4744 17.6062 81.9881 17.4656 82.5672 17.4656C83.1651 17.4656 83.6787 17.6062 84.1084 17.8874C84.5567 18.1686 84.8929 18.5502 85.1172 19.0322C85.36 19.5142 85.4814 20.0565 85.4814 20.6591C85.4814 21.2616 85.36 21.8038 85.1172 22.2859C84.8929 22.7478 84.5567 23.1194 84.1084 23.4006Z" fill="#007DFC"/>
<path fill-rule="evenodd" clip-rule="evenodd" d="M98.5392 28.7029C97.1378 28.7029 95.8672 28.3716 94.7282 27.7087C93.607 27.0259 92.7198 26.102 92.066 24.937C91.4121 23.7721 91.0852 22.4666 91.0852 21.0206C91.0852 19.5745 91.4121 18.279 92.066 17.1342C92.7198 15.9894 93.607 15.0855 94.7282 14.4228C95.8486 13.7399 97.1192 13.3984 98.5392 13.3984C99.9582 13.3984 101.229 13.7299 102.349 14.3926C103.47 15.0554 104.358 15.9693 105.011 17.1342C105.665 18.279 105.992 19.5745 105.992 21.0206C105.992 22.4666 105.665 23.7721 105.011 24.937C104.358 26.102 103.47 27.0259 102.349 27.7087C101.229 28.3716 99.9582 28.7029 98.5392 28.7029ZM98.5392 24.5153C99.155 24.5153 99.6967 24.3747 100.164 24.0935C100.631 23.7923 100.986 23.3805 101.229 22.8583C101.49 22.3161 101.621 21.7034 101.621 21.0206C101.621 20.3377 101.49 19.7452 101.229 19.2431C100.967 18.7209 100.603 18.3192 100.136 18.038C99.6878 17.7367 99.155 17.5861 98.5392 17.5861C97.941 17.5861 97.4082 17.7367 96.9416 18.038C96.4742 18.3192 96.1102 18.7209 95.8486 19.2431C95.5871 19.7653 95.4563 20.3678 95.4563 21.0507C95.4563 21.7135 95.5871 22.3161 95.8486 22.8583C96.1102 23.3805 96.4742 23.7923 96.9416 24.0935C97.4082 24.3747 97.941 24.5153 98.5392 24.5153Z" fill="#007DFC"/>
<path fill-rule="evenodd" clip-rule="evenodd" d="M122.157 28.6728C121.243 28.6728 120.402 28.482 119.636 28.1004C119.233 27.8996 118.869 27.6598 118.544 27.3811V34.5476H114.312V13.7299H118.599V14.7404C118.91 14.4669 119.256 14.2304 119.636 14.0311C120.402 13.6294 121.243 13.4285 122.157 13.4285C123.447 13.4285 124.586 13.76 125.576 14.4228C126.585 15.0855 127.37 15.9893 127.93 17.1342C128.51 18.279 128.798 19.5845 128.798 21.0507C128.798 22.5169 128.51 23.8224 127.93 24.9672C127.37 26.1121 126.585 27.0158 125.576 27.6786C124.586 28.3414 123.447 28.6728 122.157 28.6728ZM121.374 24.5153C121.99 24.5153 122.522 24.3646 122.97 24.0634C123.438 23.7622 123.802 23.3503 124.063 22.8282C124.325 22.306 124.456 21.7135 124.456 21.0507C124.456 20.3678 124.325 19.7653 124.063 19.2431C123.802 18.7209 123.438 18.3192 122.97 18.038C122.522 17.7367 121.999 17.5861 121.401 17.5861C120.804 17.5861 120.271 17.7367 119.804 18.038C119.356 18.3192 119.001 18.7209 118.74 19.2431C118.478 19.7653 118.347 20.3678 118.347 21.0507C118.347 21.7135 118.468 22.306 118.711 22.8282C118.973 23.3503 119.337 23.7622 119.804 24.0634C120.271 24.3646 120.794 24.5153 121.374 24.5153Z" fill="#007DFC"/>
<path d="M132.995 28.4017C133.779 28.6226 134.573 28.733 135.376 28.733C137.076 28.733 138.421 28.3113 139.411 27.4677C140.419 26.6242 140.924 25.4895 140.924 24.0634C140.924 23.1395 140.766 22.3963 140.448 21.834C140.131 21.2516 139.72 20.7896 139.215 20.4482C138.711 20.1068 138.178 19.8355 137.618 19.6347C137.057 19.4339 136.525 19.2631 136.021 19.1225C135.516 18.9819 135.106 18.8213 134.788 18.6405C134.47 18.4597 134.311 18.2187 134.311 17.9175C134.311 17.6363 134.433 17.4254 134.675 17.2848C134.918 17.1241 135.282 17.0439 135.768 17.0439C136.273 17.0439 136.786 17.1542 137.309 17.3752C137.851 17.5961 138.337 17.9778 138.766 18.5201L141.204 15.8689C140.588 15.0253 139.785 14.3926 138.795 13.9709C137.824 13.529 136.759 13.3081 135.6 13.3081C134.499 13.3081 133.536 13.5089 132.715 13.9106C131.892 14.3123 131.257 14.8646 130.809 15.5676C130.361 16.2504 130.136 17.0639 130.136 18.0079C130.136 18.8916 130.295 19.6247 130.613 20.2072C130.93 20.7695 131.342 21.2114 131.845 21.5327C132.35 21.8541 132.882 22.1052 133.443 22.2859C134.003 22.4666 134.536 22.6374 135.04 22.7981C135.544 22.9387 135.956 23.1094 136.273 23.3102C136.609 23.491 136.777 23.7622 136.777 24.1236C136.777 24.4048 136.637 24.6257 136.357 24.7864C136.095 24.9471 135.713 25.0275 135.208 25.0275C134.479 25.0275 133.807 24.8869 133.191 24.6057C132.574 24.3044 132.041 23.8927 131.593 23.3705L129.156 26.0216C129.623 26.5639 130.183 27.046 130.837 27.4677C131.509 27.8694 132.229 28.1807 132.995 28.4017Z" fill="#007DFC"/>
<path d="M148.742 28.7029C147.491 28.7029 146.379 28.4318 145.408 27.8895C144.455 27.3271 143.708 26.5639 143.167 25.5998C142.624 24.6157 142.354 23.491 142.354 22.2256V13.7299H146.641V22.1654C146.641 22.6675 146.715 23.0993 146.865 23.4608C147.033 23.8224 147.276 24.1036 147.593 24.3044C147.911 24.5052 148.294 24.6057 148.742 24.6057C149.377 24.6057 149.882 24.3948 150.256 23.973C150.629 23.5311 150.816 22.9286 150.816 22.1654V13.7299H155.103V22.1955C155.103 23.481 154.833 24.6157 154.29 25.5998C153.748 26.5639 153.002 27.3271 152.048 27.8895C151.096 28.4318 149.994 28.7029 148.742 28.7029Z" fill="#007DFC"/>
<path d="M161.521 13.7299H157.234V28.3716H161.521V19.8155C161.521 19.3134 161.615 18.8916 161.801 18.5502C162.007 18.2087 162.279 17.9476 162.614 17.7669C162.951 17.566 163.334 17.4656 163.763 17.4656C164.38 17.4656 164.893 17.6765 165.304 18.0983C165.734 18.4999 165.949 19.0724 165.949 19.8155V28.3716H170.236V19.8155C170.236 19.3134 170.33 18.8916 170.516 18.5502C170.722 18.2087 170.992 17.9476 171.329 17.7669C171.665 17.566 172.048 17.4656 172.478 17.4656C173.095 17.4656 173.608 17.6765 174.019 18.0983C174.448 18.4999 174.663 19.0724 174.663 19.8155V28.3716H178.951V19.3033C178.951 18.0782 178.708 17.0338 178.222 16.1701C177.755 15.2863 177.11 14.6136 176.289 14.1517C175.486 13.6695 174.56 13.4285 173.514 13.4285C172.45 13.4285 171.487 13.6796 170.628 14.1818C170.07 14.5016 169.582 14.9145 169.164 15.4203C168.775 14.8912 168.301 14.4583 167.742 14.1215C166.995 13.6596 166.145 13.4285 165.193 13.4285C164.184 13.4285 163.278 13.6596 162.475 14.1215C162.125 14.3136 161.808 14.5438 161.521 14.812V13.7299Z" fill="#007DFC"/>
</g>
<defs>
<clipPath id="clip0_80_116">
<rect width="178.485" height="38" fill="white" transform="translate(0.857544)"/>
</clipPath>
</defs>
</svg>
