<svg
              xmlns="http://www.w3.org/2000/svg"
              width="15"
              height="20"
              viewBox="0 0 15 20"
              fill="none"
            >
              <path
                d="M14.1 5.5V14.5C14.1 18.1 13.3125 19 10.1625 19H5.4375C2.2875 19 1.5 18.1 1.5 14.5V5.5C1.5 1.9 2.2875 1 5.4375 1H10.1625C13.3125 1 14.1 1.9 14.1 5.5Z"
                stroke="white"
                stroke-width="1.5"
                stroke-linecap="round"
                stroke-linejoin="round"
              />
              <path
                d="M9.3751 4.15002H6.2251"
                stroke="white"
                stroke-width="1.5"
                stroke-linecap="round"
                stroke-linejoin="round"
              />
              <path
                d="M7.7999 16.3C8.29696 16.3 8.6999 15.8971 8.6999 15.4C8.6999 14.9029 8.29696 14.5 7.7999 14.5C7.30285 14.5 6.8999 14.9029 6.8999 15.4C6.8999 15.8971 7.30285 16.3 7.7999 16.3Z"
                fill="white"
                stroke="white"
                stroke-width="1.5"
                stroke-linecap="round"
                stroke-linejoin="round"
              />
            </svg>